<svg width="114" height="118" viewBox="0 0 114 118" fill="none" xmlns="http://www.w3.org/2000/svg">
<g clip-path="url(#clip0)">
<path d="M106.851 19.3045C106.268 17.4112 105.228 15.9293 103.934 14.867C103.135 14.2098 102.682 13.2006 102.682 12.1437V3.51195C102.682 2.54236 101.922 1.75642 100.986 1.75642H97.5935C96.6577 1.75642 95.8984 2.54236 95.8984 3.51195V10.8329C95.8984 12.1293 95.2121 13.3294 94.1015 13.929C92.5037 14.7932 91.1208 16.1904 90.2215 18.1386C86.4311 26.3572 79.7036 43.3722 65.885 57.6478C52.0934 71.9513 35.6542 78.9148 27.7151 82.8391C20.4431 86.433 21.085 97.4937 28.8406 100.051C33.3702 101.545 38.4026 102.261 43.6707 102.162C59.0401 101.875 75.2061 92.9527 87.6001 80.1248C99.9932 67.2969 108.613 50.5636 108.891 34.654C108.986 29.2011 108.294 23.9931 106.851 19.3045Z" fill="#FFCF5D"/>
<path d="M99.7191 20.3677C100.026 20.6198 100.244 20.9682 100.388 21.4354C101.613 25.4137 102.192 29.8178 102.109 34.528C101.88 47.6962 94.6624 62.8856 82.8042 75.1607C70.9451 87.435 56.2707 94.9045 43.548 95.1431C39.9533 95.2106 37.064 98.1608 36.897 101.826C39.0948 102.093 41.3605 102.207 43.6715 102.163C59.0408 101.875 75.2069 92.9527 87.6008 80.1248C99.9939 67.2969 108.614 50.5636 108.891 34.654C108.987 29.202 108.295 23.9931 106.852 19.3045C106.269 17.4112 105.229 15.9294 103.935 14.867C103.135 14.2098 102.682 13.2006 102.682 12.1437V3.51195C102.682 2.54236 101.923 1.75642 100.986 1.75642H97.5943C96.6584 1.75642 95.8991 2.54236 95.8991 3.51195V12.1437C95.8991 15.3766 97.2916 18.3745 99.7191 20.3677Z" fill="#FFB545"/>
<path d="M20.8126 53.1923L15.1088 49.4535C13.6746 48.5136 11.8707 49.9126 12.3673 51.5826L14.0416 57.2093C15.2888 61.4046 17.8711 65.0506 21.3762 67.5678L26.9809 71.3849C26.9809 64.5492 26.7252 57.068 20.8126 53.1923Z" fill="#28D05B"/>
<path d="M46.4635 52.3713L45.5589 51.435C45.1049 50.965 44.4335 50.8012 43.8238 51.011C34.9923 54.0584 28.4683 61.0039 24.958 71.0977L28.1491 72.287C31.2063 63.495 36.5083 57.5838 43.9168 54.7012L44.0647 54.8542C44.7274 55.5393 45.8007 55.5393 46.4626 54.8542C47.1253 54.1682 47.1253 53.0573 46.4635 52.3713Z" fill="#B66652"/>
<path d="M36.3616 68.8362C33.0731 68.712 29.8863 69.5988 26.9805 71.2769C24.0746 69.5988 20.8879 68.7111 17.5993 68.8362C10.724 69.1396 5.77856 72.9568 3.14148 77.8713C0.493958 82.866 0.155625 88.9591 2.26651 95.6823C5.49503 105.935 14.0621 115.119 22.2012 115.601C23.0005 115.657 23.7824 115.64 24.5426 115.557C26.1525 115.381 27.8085 115.381 29.4175 115.557C30.1777 115.64 30.9596 115.657 31.7589 115.601C39.898 115.119 48.4659 105.935 51.6945 95.6823C53.8053 88.9591 53.4661 82.866 50.8195 77.8713C48.1824 72.9568 43.237 69.1396 36.3616 68.8362Z" fill="#FF5368"/>
<path d="M50.8194 77.8713C49.5287 75.4658 47.6839 73.325 45.3312 71.7288C45.5774 72.1141 45.8096 72.5075 46.0253 72.909C48.6719 77.9037 49.0112 83.9968 46.9003 90.7209C44.732 97.6043 40.1571 104.007 34.9212 107.616C32.0301 109.61 28.6172 110.638 25.1426 110.638H11.791C15.0239 113.525 18.6534 115.391 22.2019 115.601C23.0012 115.657 23.7831 115.64 24.5433 115.557C26.1645 115.379 27.7997 115.38 29.42 115.557C30.1802 115.64 30.9612 115.657 31.7596 115.601C39.8979 115.12 48.4667 105.935 51.6943 95.6831C53.8052 88.959 53.466 82.8669 50.8194 77.8713Z" fill="#D9435B"/>
<path d="M97.2525 72.2042C96.5393 69.1162 93.8579 66.8206 90.6563 66.8206C87.4556 66.8206 84.7742 69.1162 84.061 72.2042C74.7903 75.1255 68.0454 84.0445 68.0454 94.5956C68.0454 107.522 78.1684 118 90.6563 118C103.144 118 113.267 107.522 113.267 94.5956C113.267 84.0445 106.522 75.1255 97.2525 72.2042Z" fill="#FF983B"/>
<path d="M104.068 75.7512C106.836 79.635 108.474 84.4361 108.474 89.6333C108.474 102.559 98.3503 113.038 85.8633 113.038C80.8423 113.038 76.2047 111.342 72.4526 108.477C76.57 114.253 83.1906 118 90.6574 118C103.145 118 113.268 107.522 113.268 94.5956C113.268 86.8668 109.648 80.014 104.068 75.7512Z" fill="#FF7E40"/>
<path d="M88.9609 57.4488V73.7688C88.9609 74.7294 89.6767 75.5676 90.6048 75.5964C91.565 75.627 92.353 74.8294 92.353 73.8418V55.5555C90.897 54.5652 88.9609 55.6455 88.9609 57.4488Z" fill="#B66652"/>
<path d="M103.575 73.0486L101.901 67.4219C100.653 63.2267 98.0707 59.5797 94.5665 57.0634L92.353 55.5564C90.897 54.5652 88.9609 55.6455 88.9609 57.4488V59.9425C88.9609 64.6365 91.1301 68.8183 95.1292 71.4389L100.834 75.1787C102.267 76.1176 104.071 74.7177 103.575 73.0486Z" fill="#28D05B"/>
<path d="M81.879 82.9695C81.879 83.9391 81.1205 84.7251 80.1838 84.7251C79.2471 84.7251 78.4878 83.9391 78.4878 82.9695C78.4878 82 79.2471 81.214 80.1838 81.214C81.1205 81.214 81.879 82 81.879 82.9695Z" fill="#FF7E40"/>
<path d="M86.4014 89.5235C86.4014 90.4931 85.643 91.279 84.7063 91.279C83.7695 91.279 83.0103 90.4931 83.0103 89.5235C83.0103 88.5539 83.7695 87.768 84.7063 87.768C85.643 87.768 86.4014 88.5539 86.4014 89.5235Z" fill="#FF7E40"/>
<path d="M77.3578 94.673C77.3578 95.6426 76.5986 96.4277 75.6618 96.4277C74.7251 96.4277 73.9658 95.6426 73.9658 94.673C73.9658 93.7034 74.7251 92.9175 75.6618 92.9175C76.5986 92.9175 77.3578 93.7034 77.3578 94.673Z" fill="#FF7E40"/>
<path d="M65.9395 6.47653C65.5812 5.58076 64.5888 5.15584 63.7234 5.52675L62.7075 5.96158L63.4851 5.15674C64.1478 4.47163 64.1478 3.3598 63.4851 2.6747C62.8232 1.98959 61.749 1.98959 61.0872 2.6747L60.3096 3.47954L60.7306 2.42802C61.0889 1.53226 60.6775 0.50505 59.8121 0.13414C58.9476 -0.237671 57.9552 0.188156 57.5968 1.08482L56.6758 3.38591L62.7988 9.7229L65.0219 8.76952C65.8864 8.39861 66.2978 7.3723 65.9395 6.47653Z" fill="#28D05B"/>
<path d="M48.2255 5.22876C51.7576 1.57277 57.0048 2.06972 60.5369 5.72571C64.0689 9.3817 64.5482 14.813 61.0161 18.469C57.484 22.125 48.0803 25.9313 44.5482 22.2753C41.0162 18.6194 44.6935 8.88565 48.2255 5.22876Z" fill="#FF5368"/>
<path d="M60.5374 5.72571C59.6894 4.84795 58.7422 4.15474 57.7438 3.65419C59.2719 6.92487 58.9066 10.7276 56.2226 13.5058C53.5385 16.285 47.4651 19.146 43.1528 18.7571C43.272 20.1669 43.7008 21.3976 44.5488 22.2753C48.0808 25.9313 57.4846 22.125 61.0166 18.469C64.5496 14.813 64.0695 9.3817 60.5374 5.72571Z" fill="#D9435B"/>
<path d="M55.0284 13.1835C55.0284 14.1522 54.2691 14.9382 53.3324 14.9382C52.3965 14.9382 51.6372 14.1522 51.6372 13.1835C51.6372 12.2139 52.3965 11.428 53.3324 11.428C54.2691 11.428 55.0284 12.2139 55.0284 13.1835Z" fill="#FFCF5D"/>
<path d="M50.2315 18.1476C50.2315 19.1172 49.4722 19.9031 48.5363 19.9031C47.5996 19.9031 46.8403 19.1172 46.8403 18.1476C46.8403 17.1789 47.5996 16.393 48.5363 16.393C49.4722 16.393 50.2315 17.1789 50.2315 18.1476Z" fill="#FFCF5D"/>
<path d="M50.2315 13.1835C50.2315 14.1522 49.4722 14.9382 48.5363 14.9382C47.5996 14.9382 46.8403 14.1522 46.8403 13.1835C46.8403 12.2139 47.5996 11.428 48.5363 11.428C49.4722 11.428 50.2315 12.2139 50.2315 13.1835Z" fill="#FFCF5D"/>
<path d="M55.0284 18.1476C55.0284 19.1172 54.2691 19.9031 53.3324 19.9031C52.3965 19.9031 51.6372 19.1172 51.6372 18.1476C51.6372 17.1789 52.3965 16.393 53.3324 16.393C54.2691 16.393 55.0284 17.1789 55.0284 18.1476Z" fill="#FFCF5D"/>
<path d="M59.8251 13.1835C59.8251 14.1522 59.0658 14.9382 58.1291 14.9382C57.1924 14.9382 56.4331 14.1522 56.4331 13.1835C56.4331 12.2139 57.1924 11.428 58.1291 11.428C59.0658 11.428 59.8251 12.2139 59.8251 13.1835Z" fill="#FFCF5D"/>
<path d="M55.0284 8.21855C55.0284 9.18724 54.2691 9.97318 53.3324 9.97318C52.3965 9.97318 51.6372 9.18724 51.6372 8.21855C51.6372 7.24896 52.3965 6.46303 53.3324 6.46303C54.2691 6.46303 55.0284 7.24896 55.0284 8.21855Z" fill="#FFCF5D"/>
<path d="M42.608 35.9864C42.608 42.4494 37.546 47.6881 31.3021 47.6881C25.0582 47.6881 19.9971 42.4494 19.9971 35.9864C19.9971 29.5234 25.0582 24.2838 31.3021 24.2838C37.546 24.2838 42.608 29.5234 42.608 35.9864Z" fill="#5C87BD"/>
<path d="M36.5308 25.6117C37.3483 27.2304 37.8136 29.0705 37.8136 31.0241C37.8136 37.4863 32.7517 42.7258 26.5077 42.7258C24.6204 42.7258 22.8426 42.2451 21.2788 41.3988C23.1662 45.1358 26.9452 47.6881 31.3018 47.6881C37.5458 47.6881 42.6077 42.4494 42.6077 35.9864C42.6077 31.4761 40.142 27.5653 36.5308 25.6117Z" fill="#456EA2"/>
<path d="M33.1888 31.8902L33.6854 31.3761C34.3473 30.691 34.3473 29.5792 33.6854 28.8941C33.0227 28.209 31.9494 28.209 31.2867 28.8941L30.79 29.4081L30.2934 28.8941C29.6315 28.209 28.5574 28.209 27.8955 28.8941C27.2327 29.5801 27.2327 30.691 27.8955 31.3761L28.3921 31.8902L27.8955 32.4042C27.2327 33.0902 27.2327 34.2012 27.8955 34.8872C28.2269 35.2293 28.6609 35.4012 29.0949 35.4012C29.5289 35.4012 29.9629 35.2293 30.2943 34.8872L30.79 34.3731L31.2867 34.8872C31.618 35.2293 32.052 35.4012 32.486 35.4012C32.9201 35.4012 33.3541 35.2293 33.6854 34.8872C34.3482 34.2012 34.3482 33.0902 33.6854 32.4042L33.1888 31.8902Z" fill="#315588"/>
<path d="M75.173 29.5657C74.7921 28.6888 73.7701 28.3251 72.9126 28.6933L71.9619 29.1002L72.6899 28.3476C73.3457 27.6679 73.4127 26.5516 72.7769 25.8521C72.1176 25.1283 71.0165 25.1148 70.3416 25.8134L69.564 26.6173L69.985 25.5667C70.3433 24.6709 69.9328 23.6437 69.0674 23.2728C68.202 22.901 67.2096 23.3268 66.8513 24.2226L65.9302 26.5237C65.7084 27.0791 65.7832 27.6679 66.0598 28.1262C66.5155 28.8815 66.4364 29.8556 65.8276 30.4858L65.8128 30.5002C65.137 31.1997 65.0996 32.3835 65.7919 33.0659C66.4564 33.7213 67.5079 33.7114 68.1602 33.0362C68.8682 32.3034 69.7902 32.2773 70.5216 32.7382C70.7817 32.903 71.0852 32.9957 71.4044 32.9957C71.621 32.9957 71.841 32.9525 72.0532 32.8616L74.2763 31.9082C75.1574 31.5301 75.567 30.4723 75.173 29.5657Z" fill="#28D05B"/>
<path d="M70.4686 30.646C69.2301 30.3021 67.942 30.7099 67.0948 31.6615L61.531 29.8637L57.4136 34.3371L55.6663 41.0846C55.6463 41.0792 55.6263 41.072 55.6063 41.0657C53.7972 40.5634 51.9377 41.6734 51.4515 43.5459C50.9653 45.4185 52.0386 47.3442 53.8477 47.8474C55.6567 48.3498 57.5171 47.2398 58.0025 45.3672C58.1425 44.8279 58.1642 44.2734 58.0512 43.7296C58.3982 44.8135 59.2558 45.7129 60.4012 46.0307C62.2112 46.5321 64.0707 45.4212 64.556 43.5486C64.7048 42.9743 64.7108 42.3702 64.5726 41.7931C64.7256 42.3459 65.0127 42.8662 65.4336 43.3011C66.7582 44.6722 68.9057 44.6722 70.2294 43.3011C71.5541 41.93 71.5541 39.7072 70.2294 38.3361C69.8119 37.904 69.2997 37.5997 68.7526 37.4394C70.5495 37.9157 72.3855 36.8056 72.8665 34.9457C73.3518 33.0731 72.2786 31.1474 70.4686 30.646Z" fill="#D9435B"/>
<path d="M65.6727 25.6837C63.1504 24.9851 60.8473 27.3825 61.5196 29.9825C61.1274 28.4611 59.7897 27.3825 58.2433 27.3825C57.3753 27.3825 56.5073 27.7246 55.8454 28.4106C54.5207 29.7817 54.5207 32.0045 55.8454 33.3756C56.3029 33.8492 56.8569 34.1598 57.4431 34.3056C55.5958 33.7456 53.6988 34.8809 53.2109 36.7687C52.7264 38.6413 53.8015 40.5661 55.6105 41.0675C57.4205 41.5681 59.28 40.4562 59.7636 38.5828C59.9176 37.9886 59.9176 37.3629 59.7636 36.7687C60.1472 38.2236 61.4248 39.3687 63.04 39.3687C63.0452 39.3687 63.0504 39.3678 63.0556 39.3678C66.038 39.3543 67.5757 35.5876 65.4387 33.3756C64.9978 32.9192 64.4777 32.6221 63.9332 32.47C65.7388 32.9615 67.5896 31.8506 68.0723 29.9825C68.5568 28.1091 67.4818 26.1852 65.6727 25.6837Z" fill="#FF5368"/>
</g>
<defs>
<clipPath id="clip0">
<rect width="114" height="118" fill="white"/>
</clipPath>
</defs>
</svg>
