<svg width="126" height="125" viewBox="0 0 126 125" fill="none" xmlns="http://www.w3.org/2000/svg">
<g clip-path="url(#clip0)">
<path d="M99.9311 10.7758H26.069C21.2699 10.7758 17.3794 14.6354 17.3794 19.3965V105.603C17.3794 110.364 21.2699 114.224 26.069 114.224H99.9311C104.73 114.224 108.621 110.364 108.621 105.603V19.3965C108.621 14.6354 104.73 10.7758 99.9311 10.7758Z" fill="#14A085"/>
<path d="M108.36 2.49995C107.774 5.66806 105.905 10.7758 99.9312 10.7758H26.0691C20.095 10.7758 18.2267 5.66806 17.6401 2.49995C17.5325 1.87426 17.7104 1.23344 18.1257 0.750624C18.5411 0.26781 19.151 -0.00717779 19.7908 -4.78079e-05H106.209C106.849 -0.00717779 107.459 0.26781 107.875 0.750624C108.29 1.23344 108.468 1.87426 108.36 2.49995Z" fill="#26B99A"/>
<path d="M30.4132 0V2.15517C30.4132 3.34544 29.4406 4.31034 28.2408 4.31034C27.041 4.31034 26.0684 3.34544 26.0684 2.15517V0H30.4132Z" fill="#33907C"/>
<path d="M39.1022 0V2.15517C39.1022 3.34544 38.1295 4.31034 36.9297 4.31034C35.73 4.31034 34.7573 3.34544 34.7573 2.15517V0H39.1022Z" fill="#33907C"/>
<path d="M47.7926 0V2.15517C47.7926 3.34544 46.82 4.31034 45.6202 4.31034C44.4204 4.31034 43.4478 3.34544 43.4478 2.15517V0H47.7926Z" fill="#33907C"/>
<path d="M56.4816 0V2.15517C56.4816 3.34544 55.5089 4.31034 54.3091 4.31034C53.1093 4.31034 52.1367 3.34544 52.1367 2.15517V0H56.4816Z" fill="#33907C"/>
<path d="M65.1719 0V2.15517C65.1719 3.34544 64.1993 4.31034 62.9995 4.31034C61.7998 4.31034 60.8271 3.34544 60.8271 2.15517V0H65.1719Z" fill="#33907C"/>
<path d="M73.8614 0V2.15517C73.8614 3.34544 72.8888 4.31034 71.689 4.31034C70.4892 4.31034 69.5166 3.34544 69.5166 2.15517V0H73.8614Z" fill="#33907C"/>
<path d="M82.5513 0V2.15517C82.5513 3.34544 81.5787 4.31034 80.3789 4.31034C79.1792 4.31034 78.2065 3.34544 78.2065 2.15517V0H82.5513Z" fill="#33907C"/>
<path d="M91.2408 0V2.15517C91.2408 3.34544 90.2682 4.31034 89.0684 4.31034C87.8686 4.31034 86.896 3.34544 86.896 2.15517V0H91.2408Z" fill="#33907C"/>
<path d="M99.9307 0V2.15517C99.9307 3.34544 98.9581 4.31034 97.7583 4.31034C96.5586 4.31034 95.5859 3.34544 95.5859 2.15517V0H99.9307Z" fill="#33907C"/>
<path d="M108.36 122.5C108.468 123.126 108.29 123.766 107.875 124.249C107.459 124.732 106.849 125.007 106.209 125H19.7908C19.151 125.007 18.5411 124.732 18.1257 124.249C17.7104 123.766 17.5325 123.126 17.6401 122.5C18.2267 119.332 20.095 114.224 26.0691 114.224H99.9312C105.905 114.224 107.774 119.332 108.36 122.5Z" fill="#26B99A"/>
<path d="M30.4132 122.845V125H26.0684V122.845C26.0684 121.655 27.041 120.69 28.2408 120.69C29.4406 120.69 30.4132 121.655 30.4132 122.845Z" fill="#33907C"/>
<path d="M39.1036 122.845V125H34.7588V122.845C34.7588 121.655 35.7314 120.69 36.9312 120.69C38.131 120.69 39.1036 121.655 39.1036 122.845Z" fill="#33907C"/>
<path d="M47.7926 122.845V125H43.4478V122.845C43.4478 121.655 44.4204 120.69 45.6202 120.69C46.82 120.69 47.7926 121.655 47.7926 122.845Z" fill="#33907C"/>
<path d="M56.483 122.845V125H52.1382V122.845C52.1382 121.655 53.1108 120.69 54.3106 120.69C55.5104 120.69 56.483 121.655 56.483 122.845Z" fill="#33907C"/>
<path d="M65.1724 122.845V125H60.8276V122.845C60.8276 121.655 61.8003 120.69 63 120.69C64.1998 120.69 65.1724 121.655 65.1724 122.845Z" fill="#33907C"/>
<path d="M73.8624 122.845V125H69.5176V122.845C69.5176 121.655 70.4902 120.69 71.69 120.69C72.8898 120.69 73.8624 121.655 73.8624 122.845Z" fill="#33907C"/>
<path d="M82.5518 122.845V125H78.207V122.845C78.207 121.655 79.1796 120.69 80.3794 120.69C81.5792 120.69 82.5518 121.655 82.5518 122.845Z" fill="#33907C"/>
<path d="M91.2418 122.845V125H86.897V122.845C86.897 121.655 87.8696 120.69 89.0694 120.69C90.2692 120.69 91.2418 121.655 91.2418 122.845Z" fill="#33907C"/>
<path d="M99.9312 122.845V125H95.5864V122.845C95.5864 121.655 96.559 120.69 97.7588 120.69C98.9586 120.69 99.9312 121.655 99.9312 122.845Z" fill="#33907C"/>
<path d="M62.9998 84.0517C80.9966 84.0517 95.586 69.5782 95.586 51.7241C95.586 33.8701 80.9966 19.3965 62.9998 19.3965C45.0029 19.3965 30.4136 33.8701 30.4136 51.7241C30.4136 69.5782 45.0029 84.0517 62.9998 84.0517Z" fill="#26B99A"/>
<path d="M84.109 54.9676L78.1306 57.9008L67.3445 51.7241L78.1306 45.5473L84.109 48.4913C84.8076 48.8312 85.6358 48.7757 86.2818 48.3455C86.9278 47.9153 87.2935 47.176 87.241 46.4059C87.1884 45.6358 86.7258 44.9519 86.0273 44.612L82.6448 42.9525L84.7716 41.7327C85.4493 41.3504 85.8686 40.6373 85.8703 39.8639C85.872 39.0905 85.4559 38.3755 84.7799 37.9903C84.1039 37.6051 83.2717 37.6088 82.5992 37.9999L80.4724 39.2198L80.7136 35.4827C80.7909 34.2924 79.8811 33.2653 78.6813 33.1885C77.4815 33.1117 76.4461 34.0144 76.3687 35.2047L75.9342 41.8081L65.1721 47.9913V35.6357L70.7226 31.9719C71.3684 31.5446 71.7352 30.8079 71.6851 30.0395C71.6349 29.271 71.1753 28.5875 70.4794 28.2464C69.7835 27.9053 68.957 27.9584 68.3112 28.3857L65.1721 30.4568V28.0172C65.1721 26.8269 64.1995 25.862 62.9997 25.862C61.7999 25.862 60.8273 26.8269 60.8273 28.0172V30.4568L57.6881 28.3792C56.6899 27.7186 55.3409 27.9859 54.675 28.9762C54.0091 29.9665 54.2785 31.3048 55.2767 31.9654L60.8273 35.6357V47.9913L50.0412 41.8103L49.6067 35.2068C49.5294 34.0166 48.494 33.1139 47.2942 33.1907C46.0944 33.2674 45.1845 34.2946 45.2619 35.4848L45.503 39.2219L43.3762 38.0021C42.7037 37.611 41.8715 37.6073 41.1955 37.9925C40.5196 38.3777 40.1034 39.0927 40.1052 39.866C40.1069 40.6394 40.5261 41.3526 41.2038 41.7348L43.3306 42.9547L39.9721 44.612C38.8965 45.1399 38.4559 46.4329 38.988 47.4999C39.5201 48.567 40.8234 49.0041 41.899 48.4762L47.8775 45.543L58.6549 51.7241L47.8688 57.9008L41.8903 54.9676C41.1937 54.6277 40.3673 54.6822 39.7222 55.1107C39.0772 55.5392 38.7116 56.2765 38.7631 57.045C38.8146 57.8134 39.2755 58.4962 39.9721 58.8361L43.3545 60.4956L41.2277 61.7154C40.55 62.0977 40.1308 62.8109 40.129 63.5842C40.1273 64.3576 40.5435 65.0726 41.2194 65.4578C41.8954 65.843 42.7276 65.8393 43.4001 65.4482L45.5269 64.2284L45.2858 67.9654C45.2089 69.1526 46.1161 70.177 47.3127 70.2542H47.456C48.6028 70.2566 49.5539 69.3744 49.6285 68.2391L50.0629 61.6357L60.8273 55.4568V67.8124L55.2767 71.4762C54.631 71.9035 54.2641 72.6402 54.3143 73.4086C54.3645 74.1771 54.8241 74.8606 55.52 75.2017C56.2159 75.5429 57.0424 75.4897 57.6881 75.0624L60.8273 72.9913V75.431C60.8273 76.6212 61.7999 77.5861 62.9997 77.5861C64.1995 77.5861 65.1721 76.6212 65.1721 75.431V72.9913L68.3112 75.0689C68.957 75.4962 69.7835 75.5493 70.4794 75.2082C71.1753 74.8671 71.6349 74.1836 71.6851 73.4151C71.7352 72.6466 71.3684 71.91 70.7226 71.4827L65.1721 67.8124V55.4568L75.9581 61.6379L76.3926 68.2413C76.4672 69.3765 77.4183 70.2588 78.565 70.2564H78.7084C79.905 70.1791 80.8122 69.1547 80.7353 67.9676L80.4811 64.2241L82.6079 65.4439C83.2804 65.835 84.1126 65.8387 84.7886 65.4535C85.4646 65.0683 85.8807 64.3533 85.879 63.5799C85.8773 62.8065 85.458 62.0934 84.7803 61.7111L82.6535 60.4913L86.0273 58.8361C87.1029 58.3082 87.5435 57.0153 87.0114 55.9482C86.4793 54.8811 85.176 54.444 84.1004 54.9719L84.109 54.9676Z" fill="white"/>
<path d="M34.7584 96.9827H32.586C31.3862 96.9827 30.4136 96.0178 30.4136 94.8275C30.4136 93.6373 31.3862 92.6724 32.586 92.6724H34.7584C35.9582 92.6724 36.9308 93.6373 36.9308 94.8275C36.9308 96.0178 35.9582 96.9827 34.7584 96.9827Z" fill="#ECF0F1"/>
<path d="M93.4132 96.9827H91.2408C90.041 96.9827 89.0684 96.0178 89.0684 94.8275C89.0684 93.6373 90.041 92.6724 91.2408 92.6724H93.4132C94.613 92.6724 95.5856 93.6373 95.5856 94.8275C95.5856 96.0178 94.613 96.9827 93.4132 96.9827Z" fill="#ECF0F1"/>
<path d="M82.5513 96.9827H43.4478C42.248 96.9827 41.2754 96.0178 41.2754 94.8275C41.2754 93.6373 42.248 92.6724 43.4478 92.6724H82.5513C83.751 92.6724 84.7237 93.6373 84.7237 94.8275C84.7237 96.0178 83.751 96.9827 82.5513 96.9827Z" fill="#ECF0F1"/>
<path d="M34.7584 105.603H32.586C31.3862 105.603 30.4136 104.639 30.4136 103.448C30.4136 102.258 31.3862 101.293 32.586 101.293H34.7584C35.9582 101.293 36.9308 102.258 36.9308 103.448C36.9308 104.639 35.9582 105.603 34.7584 105.603Z" fill="#ECF0F1"/>
<path d="M93.4132 105.603H91.2408C90.041 105.603 89.0684 104.639 89.0684 103.448C89.0684 102.258 90.041 101.293 91.2408 101.293H93.4132C94.613 101.293 95.5856 102.258 95.5856 103.448C95.5856 104.639 94.613 105.603 93.4132 105.603Z" fill="#ECF0F1"/>
<path d="M82.5513 105.603H43.4478C42.248 105.603 41.2754 104.639 41.2754 103.448C41.2754 102.258 42.248 101.293 43.4478 101.293H82.5513C83.751 101.293 84.7237 102.258 84.7237 103.448C84.7237 104.639 83.751 105.603 82.5513 105.603Z" fill="#ECF0F1"/>
</g>
<defs>
<clipPath id="clip0">
<rect width="126" height="125" fill="white"/>
</clipPath>
</defs>
</svg>
