<svg width="120" height="122" viewBox="0 0 120 122" fill="none" xmlns="http://www.w3.org/2000/svg">
<g clip-path="url(#clip0)">
<path d="M79.3217 78.5763C78.9209 78.5763 78.5285 78.4543 78.1948 78.2289C73.8157 75.2678 71.1839 70.2763 71.186 64.9288V64.1017C71.186 62.9603 72.0973 62.0339 73.2199 62.0339C74.3426 62.0339 75.2538 62.9603 75.2538 64.1017V64.9288C75.2499 68.8969 77.2003 72.6024 80.4504 74.7984C81.3799 75.4394 81.6199 76.7256 80.9895 77.6706C80.6131 78.233 79.9908 78.572 79.3217 78.5763Z" fill="#C94536"/>
<path d="M67.1185 78.5763C66.7177 78.5763 66.3254 78.4543 65.9916 78.2289C61.6126 75.2678 58.9808 70.2763 58.9829 64.9288V64.1017C58.9829 62.9603 59.8942 62.0339 61.0168 62.0339C62.1395 62.0339 63.0507 62.9603 63.0507 64.1017V64.9288C63.0467 68.8969 64.9972 72.6024 68.2473 74.7984C69.1768 75.4394 69.4168 76.7256 68.7863 77.6706C68.4099 78.233 67.7876 78.572 67.1185 78.5763Z" fill="#C94536"/>
<path d="M54.9144 78.5763C54.5137 78.5763 54.1213 78.4543 53.7876 78.2289C49.4085 75.2678 46.7767 70.2763 46.7788 64.9288V64.1017C46.7788 62.9603 47.6901 62.0339 48.8127 62.0339C49.9354 62.0339 50.8466 62.9603 50.8466 64.1017V64.9288C50.8426 68.8969 52.7931 72.6024 56.0432 74.7984C56.9727 75.4394 57.2127 76.7256 56.5823 77.6706C56.2061 78.233 55.5836 78.572 54.9144 78.5763Z" fill="#C94536"/>
<path d="M42.7118 78.5763C42.311 78.5763 41.9187 78.4543 41.5849 78.2289C37.2059 75.2678 34.5741 70.2763 34.5762 64.9288V64.1017C34.5762 62.9603 35.4874 62.0339 36.6101 62.0339C37.7327 62.0339 38.644 62.9603 38.644 64.1017V64.9288C38.64 68.8969 40.5905 72.6024 43.8406 74.7984C44.7701 75.4394 45.0101 76.7256 44.3796 77.6706C44.0034 78.233 43.3809 78.572 42.7118 78.5763Z" fill="#C94536"/>
<path d="M34.5762 57.8983H26.4405C11.8373 57.8983 0 45.8637 0 31.0168C0 16.17 11.8373 4.13561 26.4408 4.13561H117.966C119.089 4.13561 120 5.06205 120 6.20342C120 7.34478 119.089 8.27122 117.966 8.27122H26.4408C14.0848 8.27122 4.06781 18.4551 4.06781 31.0171C4.06781 43.579 14.0848 53.7629 26.4408 53.7629H34.5764C35.6991 53.7629 36.6103 54.6894 36.6103 55.8307C36.6103 56.9721 35.6991 57.8983 34.5762 57.8983Z" fill="#FA962A"/>
<path d="M50.8474 66.1695H26.4408C11.8373 66.1695 0 54.1349 0 39.2881C0 24.4412 11.8373 12.4068 26.4408 12.4068H117.966C119.089 12.4068 120 13.3333 120 14.4746C120 15.616 119.089 16.5425 117.966 16.5425H26.4408C14.0848 16.5425 4.06781 26.7264 4.06781 39.2883C4.06781 51.8503 14.0848 62.0342 26.4408 62.0342H50.8477C51.9703 62.0342 52.8816 62.9606 52.8816 64.102C52.8813 65.2431 51.9701 66.1695 50.8474 66.1695Z" fill="#FA962A"/>
<path d="M105.657 41.4635C98.0873 34.7245 88.3673 31.013 78.3056 31.017H14.2378C17.7769 50.1999 34.2513 64.1017 53.4494 64.1017H81.3565C89.2195 64.1017 95.5938 70.5822 95.5938 78.5763C95.5938 86.5704 89.2195 93.051 81.3565 93.051H73.2208V117.865H76.2717C99.2344 117.875 118.278 99.7984 119.846 76.5088C119.917 75.4748 120.001 74.4533 120.001 73.407C120.003 61.1489 114.769 49.4927 105.657 41.4635Z" fill="#F46B27"/>
<path d="M92.1572 105.952L90.8921 102.023C99.8677 99.006 106.706 91.5331 109.016 82.2134L112.966 83.2101C110.308 93.909 102.461 102.484 92.1572 105.952Z" fill="#F49C70"/>
<path d="M113.877 76.5807L109.809 76.4361C109.829 76.1177 109.829 75.7972 109.829 75.4746C109.829 67.3811 106.376 59.6849 100.361 54.3831L103.026 51.2588C109.931 57.3464 113.897 66.1821 113.897 75.4748C113.897 75.8447 113.897 76.2128 113.877 76.5807Z" fill="#F49C70"/>
<path d="M96.5729 51.5771C92.2895 48.9449 87.3777 47.5552 82.3721 47.5595H79.3213V43.4239H82.3721C88.12 43.4198 93.7599 45.0161 98.6799 48.0391L96.5729 51.5771Z" fill="#F49C70"/>
<path d="M38.6442 41.3559C35.2741 41.3559 32.5425 38.5787 32.5425 35.1524C32.5425 31.7262 35.2741 28.949 38.6442 28.949C42.0143 28.949 44.7459 31.7262 44.7459 35.1524C44.7459 38.5789 42.0145 41.3559 38.6442 41.3559Z" fill="#75462E"/>
<path d="M71.186 31.0168V64.1017H73.2199H75.2538V31.0168H73.2199H71.186Z" fill="#DE4C3C"/>
<path d="M94.9648 74.4407C95.1702 75.117 95.327 75.8075 95.4305 76.5085C95.5323 77.1929 95.5871 77.8837 95.5932 78.5763H119.652C119.73 77.892 119.799 77.2034 119.845 76.5085C119.892 75.8137 119.937 75.1334 119.965 74.4407H94.9648Z" fill="#DE4C3C"/>
<path d="M105.656 41.4635C105.142 41.0087 104.592 40.595 104.058 40.1649L80.5132 64.1017H81.3553C82.7953 64.1162 84.2252 64.3435 85.6001 64.7779L107.159 42.8594C106.667 42.3897 106.169 41.9163 105.656 41.4635Z" fill="#DE4C3C"/>
<path d="M87.8923 91.4256C87.2375 91.7626 86.5561 92.0502 85.8584 92.2818L102.347 109.045C102.896 108.632 103.46 108.229 103.988 107.788C104.517 107.348 105.028 106.897 105.532 106.434L89.6679 90.305C89.1045 90.7225 88.5106 91.0968 87.8923 91.4256Z" fill="#DE4C3C"/>
<path d="M73.221 117.864V105.458L56.9497 117.864H73.221Z" fill="#E85925"/>
<path d="M52.8816 117.864H56.9495L73.2207 105.458H31.7656C36.1182 113.133 44.1685 117.862 52.8816 117.864Z" fill="#DE4C3C"/>
<path d="M28.4741 93.0507C28.4741 97.4096 29.609 101.69 31.765 105.458H73.2198V93.0507H28.4741Z" fill="#E85925"/>
<path d="M75.2538 93.0507H71.186V117.864H75.2538V93.0507Z" fill="#DE4C3C"/>
</g>
<defs>
<clipPath id="clip0">
<rect width="120" height="122" fill="white"/>
</clipPath>
</defs>
</svg>
