<svg width="130" height="130" viewBox="0 0 130 130" fill="none" xmlns="http://www.w3.org/2000/svg">
<path d="M97.4987 16.25C97.5066 15.2038 97.243 14.1734 96.7336 13.2596C96.2242 12.3457 95.4866 11.5796 94.5926 11.036C93.6987 10.4924 92.6791 10.19 91.6333 10.1583C90.5876 10.1266 89.5515 10.3666 88.6262 10.855C87.9846 9.43594 86.9474 8.23206 85.6389 7.38764C84.3303 6.54322 82.8061 6.09409 81.2487 6.09409C79.6914 6.09409 78.1671 6.54322 76.8586 7.38764C75.5501 8.23206 74.5128 9.43594 73.8712 10.855C72.7283 10.2514 71.422 10.0298 70.1439 10.2226C68.8658 10.4155 67.6831 11.0127 66.7692 11.9267C65.8552 12.8406 65.258 14.0233 65.0652 15.3014C64.8723 16.5795 65.0939 17.8857 65.6975 19.0287C64.4595 19.585 63.3818 20.4445 62.5642 21.5279C61.7466 22.6112 61.2155 23.8833 61.0201 25.2264C60.8247 26.5694 60.9712 27.9401 61.4462 29.2115C61.9212 30.4829 62.7092 31.614 63.7373 32.5C62.8695 33.2557 62.1726 34.1876 61.6928 35.2336C61.2131 36.2796 60.9615 37.4158 60.9549 38.5665C60.9483 39.7173 61.1867 40.8563 61.6544 41.9077C62.122 42.9592 62.8082 43.899 63.6672 44.6647C64.5263 45.4305 65.5385 46.0045 66.6366 46.3488C67.7346 46.693 68.8934 46.7995 70.0359 46.6612C71.1783 46.5229 72.2782 46.1429 73.2624 45.5466C74.2466 44.9503 75.0926 44.1512 75.744 43.2026C76.3915 44.643 77.5747 45.7744 79.0426 46.3568C80.5105 46.9391 82.1476 46.9267 83.6064 46.322C85.0653 45.7173 86.2311 44.568 86.8566 43.1179C87.482 41.6679 87.5179 40.0312 86.9565 38.5551C87.0865 38.5551 87.2104 38.5937 87.3425 38.5937C88.5208 38.5984 89.6751 38.26 90.6644 37.6198C91.6536 36.9795 92.4352 36.0652 92.9135 34.9883C93.3919 33.9113 93.5464 32.7185 93.3582 31.5552C93.1701 30.392 92.6474 29.3086 91.8539 28.4375C92.6247 27.5996 93.1408 26.5595 93.3419 25.4389C93.543 24.3184 93.4207 23.1637 92.9893 22.1101C94.2805 21.7646 95.4219 21.0033 96.237 19.9441C97.0521 18.8848 97.4955 17.5865 97.4987 16.25Z" fill="#A1D51C"/>
<path d="M93.4369 32.5C93.4369 34.1162 92.7949 35.6661 91.6521 36.8089C90.5093 37.9517 88.9593 38.5938 87.3431 38.5938C87.2212 38.5938 87.0791 38.5531 86.9572 38.5531C87.2099 39.2148 87.3407 39.9167 87.3431 40.625C87.3354 42.0055 86.8592 43.3424 85.9926 44.4169C85.1259 45.4914 83.92 46.2397 82.5725 46.5394C81.225 46.8392 79.8156 46.6724 78.5752 46.0666C77.3347 45.4608 76.3368 44.4517 75.7447 43.2047C75.095 44.1585 74.2492 44.9626 73.2638 45.5634C72.2785 46.1642 71.1763 46.5478 70.0308 46.6886C68.8854 46.8293 67.7231 46.7241 66.6216 46.3797C65.5201 46.0354 64.5048 45.46 63.6434 44.6919C62.7821 43.9239 62.0945 42.9808 61.6268 41.9258C61.159 40.8708 60.9218 39.7281 60.9309 38.5741C60.9401 37.4201 61.1954 36.2813 61.6798 35.2338C62.1642 34.1864 62.8666 33.2543 63.74 32.5C62.7119 31.6149 61.9237 30.4848 61.4483 29.2143C60.9728 27.9438 60.8255 26.5739 61.0199 25.2314C61.2143 23.8888 61.7441 22.617 62.5604 21.5335C63.3767 20.45 64.4531 19.5899 65.69 19.0328C65.091 17.888 64.8733 16.5818 65.0685 15.3046C65.2638 14.0274 65.8618 12.8459 66.7754 11.9323C67.689 11.0187 68.8705 10.4207 70.1477 10.2254C71.4249 10.0302 72.7311 10.2479 73.8759 10.8469C74.4744 9.52143 75.4223 8.38389 76.6181 7.55624C75.4693 9.191 74.9701 11.1949 75.218 13.1776C75.4658 15.1602 76.4428 16.9796 77.9587 18.2812C77.0907 19.0368 76.3935 19.9686 75.9135 21.0145C75.4335 22.0605 75.1816 23.1966 75.1748 24.3474C75.1679 25.4982 75.4061 26.6373 75.8736 27.6889C76.3411 28.7405 77.0271 29.6805 77.886 30.4465C78.7449 31.2124 79.7571 31.7866 80.8552 32.1311C81.9533 32.4755 83.1121 32.5821 84.2546 32.444C85.3971 32.3058 86.4971 31.926 87.4814 31.3298C88.4657 30.7335 89.3118 29.9345 89.9634 28.9859C90.6526 30.451 91.8943 31.5831 93.4166 32.1344C93.4334 32.2555 93.4402 32.3778 93.4369 32.5Z" fill="#7AB92D"/>
<path d="M73.2137 37.8422C72.8625 37.8416 72.5175 37.7501 72.2123 37.5764C71.9071 37.4027 71.6521 37.1529 71.4722 36.8513C71.2923 36.5497 71.1937 36.2066 71.186 35.8555C71.1783 35.5044 71.2618 35.1573 71.4282 34.8481C73.7462 30.5509 74.373 25.542 73.1853 20.8061C73.1183 20.5466 73.1033 20.2765 73.1412 20.0112C73.1791 19.7459 73.2691 19.4907 73.406 19.2604C73.543 19.0301 73.7241 18.8291 73.9391 18.6691C74.154 18.5091 74.3985 18.3932 74.6584 18.328C74.9184 18.2629 75.1886 18.2499 75.4536 18.2897C75.7186 18.3294 75.9731 18.4213 76.2025 18.5599C76.4318 18.6984 76.6315 18.881 76.79 19.0971C76.9485 19.3132 77.0626 19.5585 77.1259 19.8189C78.5602 25.5377 77.8038 31.5863 75.0053 36.7758C74.8309 37.0988 74.5722 37.3686 74.2567 37.5564C73.9413 37.7441 73.5808 37.8429 73.2137 37.8422Z" fill="#5BA006"/>
<path d="M72.3575 39.4367C72.0212 39.4374 71.6901 39.3535 71.3947 39.1929C71.1598 39.0664 70.9521 38.8948 70.7835 38.688C70.6149 38.4812 70.4887 38.2432 70.4121 37.9876C70.3355 37.732 70.3101 37.4638 70.3372 37.1984C70.3642 36.9329 70.4434 36.6754 70.57 36.4406L71.4292 34.8481C74.2225 29.6673 78.7445 25.6304 84.2078 23.4406C84.4559 23.3413 84.7211 23.2919 84.9882 23.2952C85.2554 23.2985 85.5193 23.3543 85.7649 23.4596C86.0105 23.5648 86.2329 23.7174 86.4195 23.9086C86.6061 24.0998 86.7533 24.3259 86.8525 24.574C86.9517 24.8221 87.0011 25.0873 86.9979 25.3544C86.9946 25.6216 86.9388 25.8855 86.8335 26.1311C86.7283 26.3767 86.5757 26.5991 86.3845 26.7857C86.1932 26.9723 85.9671 27.1195 85.7191 27.2187C81.1385 29.0527 77.3472 32.4364 75.0062 36.7798L74.147 38.3743C73.9723 38.6963 73.7137 38.9651 73.3986 39.1521C73.0836 39.3391 72.7239 39.4374 72.3575 39.4367Z" fill="#5BA006"/>
<path d="M102.578 48.75C109.87 48.75 115.781 42.8388 115.781 35.5469C115.781 28.255 109.87 22.3438 102.578 22.3438C95.2862 22.3438 89.375 28.255 89.375 35.5469C89.375 42.8388 95.2862 48.75 102.578 48.75Z" fill="#F89C8D"/>
<path d="M115.781 35.5468C115.782 38.0302 115.082 40.4633 113.762 42.567C112.443 44.6706 110.556 46.3593 108.32 47.4393C106.084 48.5193 103.588 48.9467 101.12 48.6725C98.652 48.3982 96.3113 47.4335 94.3666 45.889C92.422 44.3446 90.9524 42.283 90.1265 39.941C89.3006 37.599 89.152 35.0715 89.6977 32.6489C90.2434 30.2263 91.4612 28.0066 93.2114 26.2449C94.9616 24.4831 97.1732 23.2506 99.5922 22.689C99.9325 25.9379 101.464 28.9457 103.89 31.1324C106.317 33.3192 109.468 34.5299 112.734 34.5312C113.74 34.5314 114.742 34.4155 115.72 34.1859C115.761 34.6328 115.781 35.1 115.781 35.5468Z" fill="#F8664F"/>
<path d="M64.856 45.8859L43.7472 58.0734L21.4035 19.372C20.3259 17.5061 20.0336 15.2886 20.5909 13.2072C21.1482 11.1258 22.5095 9.35106 24.3752 8.27325C26.2232 7.2059 28.2634 6.51302 30.3792 6.23417C32.4949 5.95532 34.6449 6.09595 36.7064 6.64805C38.7678 7.20014 40.7003 8.15288 42.3936 9.45186C44.0868 10.7508 45.5075 12.3706 46.5747 14.2187L64.856 45.8859Z" fill="#F9E109"/>
<path d="M64.8582 45.8859L43.7535 58.0735L21.4098 19.3781C20.8741 18.4541 20.5258 17.4335 20.3849 16.3747C20.2441 15.3159 20.3133 14.2397 20.5888 13.2077C20.8642 12.1758 21.3405 11.2082 21.9902 10.3605C22.64 9.5127 23.4505 8.80138 24.3754 8.26718C24.8209 8.00221 25.2822 7.76478 25.7567 7.55624L31.566 17.5906C33.5801 21.0926 36.8288 23.7166 40.6761 24.949C44.5234 26.1813 48.6921 25.9332 52.366 24.2531L64.8582 45.8859Z" fill="#FCBC04"/>
<path d="M83.2812 42.6562L71.0938 34.5312L58.9062 42.6562L46.7188 34.5312L34.5312 42.6562L22.3438 34.5312V123.906H95.4688V34.5312L83.2812 42.6562Z" fill="#F7F754"/>
<path d="M95.4688 101.562V123.906H22.3438V34.5312L34.5312 42.6562L46.7188 34.5312V52.8125C46.722 65.7408 51.8592 78.1387 61.0009 87.2804C70.1426 96.4221 82.5404 101.559 95.4688 101.562Z" fill="#F9E109"/>
<path d="M95.4688 34.5312L107.656 42.6562L119.844 34.5312V123.906H95.4688V34.5312Z" fill="#FCBC04"/>
<path d="M119.844 34.5312V123.906H107.656V42.6562L119.844 34.5312Z" fill="#E59730"/>
<path d="M107.656 111.719L95.4688 123.906H107.656H119.844L107.656 111.719Z" fill="#F9E109"/>
<path d="M28.4375 71.4431V60.9375H16.25V71.4431C16.2502 73.2645 15.8915 75.068 15.1944 76.7507C14.4973 78.4334 13.4756 79.9623 12.1875 81.25C10.8994 82.5377 9.87766 84.0666 9.1806 85.7493C8.48354 87.432 8.12485 89.2355 8.125 91.0569V123.906H36.5625V91.0569C36.5627 89.2355 36.204 87.432 35.5069 85.7493C34.8098 84.0666 33.7881 82.5377 32.5 81.25C31.2119 79.9623 30.1902 78.4334 29.4931 76.7507C28.796 75.068 28.4373 73.2645 28.4375 71.4431Z" fill="#84D2F4"/>
<path d="M36.5625 97.7031V123.906H8.125V91.0609C8.12562 87.3815 9.58678 83.8528 12.1875 81.25C14.7882 78.6472 16.2494 75.1185 16.25 71.4391V60.9375H28.4375V65.0203C26.7926 65.1052 25.2431 65.8186 24.1091 67.0131C22.9751 68.2076 22.3431 69.792 22.3438 71.4391C22.3431 75.1185 20.882 78.6472 18.2812 81.25C15.6805 83.8528 14.2194 87.3815 14.2188 91.0609C14.2158 95.7108 15.6427 100.249 18.3061 104.061C20.9695 107.872 24.7404 110.773 29.1078 112.369C28.71 110.828 28.4852 109.247 28.4375 107.656C28.437 105.315 29.2455 103.045 30.7261 101.232C32.2067 99.4179 34.2685 98.1714 36.5625 97.7031Z" fill="#57B7EB"/>
<path d="M14.2188 52.8125H30.4688V60.9375H14.2188V52.8125Z" fill="#D0D8DA"/>
<path d="M8.125 95.4688H36.5625V109.688H8.125V95.4688Z" fill="#D0D8DA"/>
<path d="M20.8609 107.108C21.8114 108.066 22.8522 108.93 23.9688 109.688H8.125V95.4688H14.6656C15.5232 99.8797 17.6808 103.933 20.8609 107.108Z" fill="#93999A"/>
<path d="M36.5625 97.7031V109.687H28.6C28.5009 109.015 28.4467 108.336 28.4375 107.656C28.437 105.315 29.2455 103.045 30.7261 101.232C32.2067 99.4179 34.2685 98.1714 36.5625 97.7031Z" fill="#93999A"/>
<path d="M30.4688 56.875V60.9375H14.2188V52.8125H19.3781C20.0874 54.0492 21.111 55.0764 22.3453 55.7898C23.5796 56.5033 24.9806 56.8777 26.4062 56.875H30.4688Z" fill="#93999A"/>
<path d="M54.8439 95.4688C52.6399 95.4757 50.4991 96.2057 48.7501 97.5467C47.2491 96.3991 45.4566 95.695 43.5758 95.5144C41.695 95.3338 39.8012 95.6839 38.1092 96.525C36.4173 97.3661 34.995 98.6646 34.0035 100.273C33.0121 101.881 32.4913 103.736 32.5001 105.625C32.5001 111.233 37.0481 123.906 42.6564 123.906C44.8603 123.899 47.0011 123.169 48.7501 121.828C50.4991 123.169 52.6399 123.899 54.8439 123.906C60.4522 123.906 65.0001 111.233 65.0001 105.625C65.0001 102.931 63.9301 100.348 62.0254 98.4435C60.1208 96.5388 57.5375 95.4688 54.8439 95.4688Z" fill="#F89C8D"/>
<path d="M63.375 113.608C61.5469 118.788 58.4188 123.906 54.8438 123.906C52.6411 123.898 50.5015 123.17 48.75 121.834C46.9985 123.17 44.8589 123.898 42.6563 123.906C37.05 123.906 32.5 111.231 32.5 105.625C32.5004 103.263 33.3241 100.975 34.8292 99.1547C36.3344 97.3344 38.427 96.0957 40.7469 95.6516C41.2923 100.626 43.6544 105.223 47.3803 108.563C51.1062 111.903 55.9338 113.75 60.9375 113.75C61.7522 113.754 62.5664 113.707 63.375 113.608Z" fill="#F8664F"/>
<path d="M54.8438 91.4062H48.75C48.75 89.2513 49.606 87.1847 51.1298 85.661C52.6535 84.1372 54.7201 83.2812 56.875 83.2812H62.9688C62.9688 85.4361 62.1127 87.5027 60.589 89.0265C59.0653 90.5502 56.9986 91.4062 54.8438 91.4062Z" fill="#A1D51C"/>
<path d="M61.8719 87.3438C61.5165 87.9564 61.0867 88.5227 60.5922 89.0297C59.064 90.5484 56.9982 91.4024 54.8437 91.4063H48.75C48.7538 89.2519 49.6079 87.186 51.1266 85.6578C51.4004 85.38 51.6996 85.1284 52.0203 84.9063C52.5819 85.6646 53.3138 86.2803 54.1571 86.7037C55.0004 87.1271 55.9314 87.3463 56.875 87.3438H61.8719Z" fill="#7AB92D"/>
<path d="M48.7503 99.5313C48.2115 99.5313 47.6949 99.3173 47.3139 98.9363C46.933 98.5554 46.719 98.0388 46.719 97.5V96.6875C46.7211 94.7687 46.2483 92.8793 45.3427 91.1876C44.4372 89.4959 43.127 88.0547 41.5292 86.9924C41.3072 86.8443 41.1166 86.654 40.9682 86.4323C40.8198 86.2106 40.7166 85.9618 40.6643 85.7002C40.6121 85.4386 40.6119 85.1693 40.6637 84.9076C40.7156 84.6459 40.8185 84.397 40.9665 84.175C41.1145 83.9531 41.3049 83.7625 41.5266 83.6141C41.7483 83.4657 41.997 83.3625 42.2586 83.3102C42.5203 83.258 42.7896 83.2578 43.0513 83.3096C43.313 83.3614 43.5619 83.4643 43.7838 83.6124C45.9396 85.0465 47.7069 86.9919 48.9279 89.2752C50.1489 91.5584 50.7857 94.1085 50.7815 96.6977V97.5C50.7815 98.0388 50.5675 98.5554 50.1866 98.9363C49.8056 99.3173 49.289 99.5313 48.7503 99.5313Z" fill="#7AB92D"/>
<path d="M49.6239 19.4999L40.8286 24.5781C40.3625 24.8469 39.8087 24.9199 39.2889 24.7809C38.7691 24.6419 38.3256 24.3023 38.0559 23.8367C37.7871 23.3705 37.7141 22.8168 37.8531 22.297C37.9921 21.7771 38.3317 21.3337 38.7973 21.064L47.6008 15.9859L49.6239 19.4999Z" fill="#E59730"/>
<path d="M54.7014 28.2953L45.8959 33.3734C45.4298 33.6423 44.876 33.7152 44.3562 33.5762C43.8364 33.4372 43.3929 33.0976 43.1232 32.632C42.9905 32.4006 42.9047 32.1453 42.8706 31.8807C42.8366 31.6162 42.855 31.3475 42.9247 31.09C42.9945 30.8325 43.1144 30.5913 43.2774 30.3802C43.4404 30.169 43.6434 29.992 43.8748 29.8593L52.6782 24.7812L54.7014 28.2953Z" fill="#E59730"/>
<path d="M105.625 30.4687C105.265 30.4683 104.912 30.3725 104.602 30.1912C104.292 30.0099 104.035 29.7496 103.858 29.4367C103.682 29.1238 103.591 28.7697 103.596 28.4104C103.601 28.051 103.701 27.6994 103.886 27.3914C104.997 25.5273 106.515 23.9381 108.327 22.7423C110.138 21.5465 112.196 20.775 114.347 20.4851L115.509 20.3267C115.773 20.2907 116.042 20.3071 116.3 20.375C116.558 20.4429 116.8 20.5609 117.012 20.7224C117.225 20.8838 117.403 21.0855 117.538 21.316C117.672 21.5464 117.76 21.8011 117.796 22.0654C117.832 22.3298 117.815 22.5986 117.747 22.8567C117.68 23.1147 117.562 23.3568 117.4 23.5691C117.239 23.7815 117.037 23.96 116.806 24.0945C116.576 24.2289 116.321 24.3166 116.057 24.3526L114.897 24.5111C113.349 24.7194 111.868 25.2744 110.564 26.1347C109.261 26.9949 108.168 28.1383 107.367 29.4795C107.187 29.781 106.932 30.0306 106.626 30.204C106.321 30.3774 105.976 30.4686 105.625 30.4687Z" fill="#A1D51C"/>
<path d="M83.2812 58.9062H65C64.4613 58.9062 63.9446 58.6922 63.5637 58.3113C63.1828 57.9304 62.9688 57.4137 62.9688 56.875C62.9688 56.3363 63.1828 55.8196 63.5637 55.4387C63.9446 55.0578 64.4613 54.8438 65 54.8438H83.2812C83.82 54.8438 84.3366 55.0578 84.7176 55.4387C85.0985 55.8196 85.3125 56.3363 85.3125 56.875C85.3125 57.4137 85.0985 57.9304 84.7176 58.3113C84.3366 58.6922 83.82 58.9062 83.2812 58.9062Z" fill="#7AB92D"/>
<path d="M83.2812 69.0625H71.0938C70.555 69.0625 70.0384 68.8485 69.6574 68.4676C69.2765 68.0866 69.0625 67.57 69.0625 67.0312C69.0625 66.4925 69.2765 65.9759 69.6574 65.5949C70.0384 65.214 70.555 65 71.0938 65H83.2812C83.82 65 84.3366 65.214 84.7176 65.5949C85.0985 65.9759 85.3125 66.4925 85.3125 67.0312C85.3125 67.57 85.0985 68.0866 84.7176 68.4676C84.3366 68.8485 83.82 69.0625 83.2812 69.0625Z" fill="#7AB92D"/>
</svg>
