<svg width="142" height="140" viewBox="0 0 142 140" fill="none" xmlns="http://www.w3.org/2000/svg">
<g clip-path="url(#clip0)">
<path d="M61.6813 128.135C60.7136 128.135 59.8384 127.475 59.6104 126.499C56.0267 111.165 56.4018 95.9727 60.7246 81.3441C64.1744 69.6703 70.1297 58.3434 78.4253 47.6785C92.5068 29.5748 108.258 19.7718 108.922 19.3633C109.921 18.7483 111.232 19.0546 111.851 20.0461C112.47 21.0376 112.163 22.3391 111.165 22.9544C111.008 23.0511 95.3164 32.8336 81.7093 50.3694C63.5947 73.7144 57.5543 99.0065 63.7558 125.544C64.0216 126.681 63.3089 127.816 62.1641 128.079C62.0024 128.117 61.8405 128.135 61.6813 128.135Z" fill="#B4732D"/>
<path d="M61.4361 81.7356C57.4443 85.8538 50.8936 86.0228 44.3145 79.7384C40.74 76.3215 37.5879 69.0678 35.4544 63.158C34.8417 61.4594 34.311 59.8707 33.8828 58.5185C33.2728 56.5946 35.0488 54.7607 37.0062 55.2931C39.832 56.062 43.6619 57.2 47.424 58.6312C51.8922 60.3298 56.267 62.4396 58.7665 64.8256C65.3455 71.1103 65.4279 77.6173 61.4361 81.7356Z" fill="#A4E869"/>
<path d="M61.4358 81.7356C57.444 85.8538 50.8933 86.0228 44.3142 79.7384C40.7397 76.3215 37.5875 69.0678 35.4541 63.158C36.7534 62.8875 38.1295 62.6707 39.5764 62.5354C42.7908 62.231 45.1908 60.6451 47.4237 58.6312C51.8919 60.3298 56.2667 62.4397 58.7661 64.8257C65.3452 71.1104 65.4276 77.6173 61.4358 81.7356Z" fill="#54CE3E"/>
<path d="M62.9135 79.7938C62.5134 80.4859 62.0188 81.1359 61.4366 81.7366C57.4465 85.854 50.8936 86.0236 44.3151 79.7389C39.7105 75.3398 35.8096 64.5809 33.8816 58.5185C33.2705 56.5957 35.0476 54.762 37.0081 55.2919C37.1266 55.3228 37.2475 55.3559 37.3703 55.3909C39.3349 61.5099 43.1738 71.941 47.69 76.2558C53.3101 81.6248 58.9118 82.284 62.9135 79.7938Z" fill="#54CE3E"/>
<path d="M74.0694 56.1693C73.607 57.9891 72.5401 59.5356 70.9996 60.6961C66.9739 63.7384 61.2571 63.0088 56.3946 56.6678C55.5265 55.5383 54.7577 54.0538 54.0766 52.3806C52.0792 47.482 50.848 40.9468 50.2126 36.8283C49.943 35.0761 51.7361 33.7213 53.3675 34.4453C58.5054 36.7326 67.5754 41.2061 70.9798 45.6453C73.987 49.5664 74.8212 53.2255 74.0694 56.1693Z" fill="#A4E869"/>
<path d="M74.0694 56.1693C73.607 57.989 72.5401 59.5356 70.9996 60.696C66.974 63.7383 61.2572 63.0087 56.3946 56.6677C55.5266 55.5382 54.7577 54.0537 54.0767 52.3805C56.0201 50.9073 58.1932 49.8622 60.8628 49.8622C61.1126 49.8622 61.3648 49.8734 61.6146 49.8931C66.2447 50.2507 68.5286 52.1016 70.5428 53.7324C71.5386 54.541 72.5572 55.3635 74.0694 56.1693Z" fill="#54CE3E"/>
<path d="M72.5488 59.2055C72.1071 59.7535 71.5891 60.252 71.0017 60.696C66.9752 63.7394 61.2578 63.009 56.3955 56.6669C52.9919 52.2277 51.0642 42.3561 50.2127 36.8302C49.9428 35.0775 51.7361 33.7223 53.3678 34.4453C53.4667 34.4879 53.5669 34.5328 53.6691 34.5798C54.5449 40.1601 56.4632 49.7383 59.8015 54.0923C63.9552 59.5104 68.7333 60.8333 72.5488 59.2055Z" fill="#54CE3E"/>
<path d="M85.3401 31.7701C88.2741 38.11 86.4899 42.7948 82.4645 44.6314C78.4391 46.4681 73.6967 44.7611 70.7627 38.4211C68.7094 33.9844 68.9608 25.1857 69.297 20.3032C69.4036 18.7545 71.1959 17.9366 72.4492 18.8652C76.3988 21.7921 83.2868 27.3333 85.3401 31.7701Z" fill="#A4E869"/>
<path d="M84.0734 43.6524C83.5907 44.0366 83.0523 44.3642 82.4652 44.6321C78.4403 46.4685 73.697 44.7606 70.763 38.421C68.7095 33.9837 68.9612 25.1856 69.2963 20.3036C69.4029 18.7554 71.1954 17.9376 72.4501 18.8648C72.5264 18.92 72.6035 18.9774 72.6817 19.0368C72.3567 23.9696 72.1535 32.5153 74.1677 36.8676C76.674 42.2836 80.5011 44.3196 84.0734 43.6524Z" fill="#54CE3E"/>
<path d="M100.215 22.4335C101.739 28.0723 99.6052 31.6885 96.0248 32.6428C92.4445 33.5971 88.7736 31.5283 87.249 25.8892C86.1822 21.9429 87.6329 14.7195 88.6001 10.7383C88.9069 9.47556 90.5011 9.05064 91.4035 9.99099C94.2486 12.9564 99.1478 18.4872 100.215 22.4335Z" fill="#A4E869"/>
<path d="M97.6234 31.9805C97.1356 32.2692 96.6 32.4918 96.0253 32.6436C92.4452 33.5965 88.7756 31.5285 87.251 25.8889C86.1834 21.9423 87.6336 14.7201 88.601 10.7372C88.907 9.47745 90.5026 9.05225 91.4034 9.99205C91.638 10.2362 91.8859 10.4963 92.1406 10.7711C91.1933 14.8677 90.0113 21.3583 91.0035 25.0243C92.221 29.5291 94.8072 31.7541 97.6234 31.9805Z" fill="#54CE3E"/>
<path d="M76.6085 72.8978C67.479 72.8521 62.8533 77.4617 62.8244 83.1766C62.7954 88.8914 67.3741 93.547 76.5035 93.5929C82.8926 93.6249 93.2431 88.609 98.8814 85.5946C100.67 84.6384 100.683 82.0938 98.9043 81.1198C93.2963 78.0491 82.9972 72.9298 76.6085 72.8978Z" fill="#A4E869"/>
<path d="M63.1287 80.761C62.9299 81.5343 62.8283 82.3425 62.8239 83.1763C62.795 88.89 67.375 93.5467 76.5039 93.5923C82.8937 93.6243 93.2432 88.6084 98.8812 85.5956C100.669 84.6397 100.682 82.0951 98.9041 81.1181C98.7975 81.0582 98.6876 80.9983 98.5747 80.9384C92.8706 83.9668 82.7957 88.7902 76.5284 88.759C68.7299 88.7199 64.2501 85.3159 63.1287 80.761Z" fill="#54CE3E"/>
<path d="M103.963 67.6708C102.539 68.3385 100.783 69.1299 98.8681 69.913C93.9458 71.9271 87.9825 73.9019 83.9425 73.6708C75.9279 73.2145 72.1234 68.9158 72.4128 63.899C72.5717 61.1526 73.925 58.7611 76.4329 57.2343C78.5069 55.9693 81.3693 55.2961 84.9951 55.5018C90.604 55.8228 99.4101 60.7892 104.19 63.7412C105.708 64.6794 105.58 66.9131 103.963 67.6708Z" fill="#A4E869"/>
<path d="M98.8697 69.9131C93.9473 71.9272 87.984 73.902 83.944 73.6709C75.9294 73.2146 72.1248 68.9159 72.4143 63.8991C72.5732 61.1527 73.9264 58.7612 76.4344 57.2344C77.0331 57.4654 77.6913 57.6907 78.4203 57.9133C86.3355 60.333 93.2098 62.7162 97.1675 67.4147C97.8229 68.1976 98.3932 69.0313 98.8697 69.9131Z" fill="#54CE3E"/>
<path d="M72.7924 61.7919C72.582 62.4618 72.4553 63.167 72.4129 63.899C72.1226 68.9152 75.9291 73.2136 83.9432 73.6708C89.5529 73.9907 98.8737 70.059 103.964 67.6705C105.579 66.9128 105.708 64.6788 104.192 63.7398C104.101 63.6824 104.007 63.6247 103.911 63.567C98.7617 65.9656 89.6909 69.7412 84.1886 69.4276C77.3424 69.0369 73.5662 65.8431 72.7924 61.7919Z" fill="#54CE3E"/>
<path d="M95.4168 39.774C88.39 39.8322 84.8777 43.4271 84.9148 47.8259C84.952 52.2247 88.5238 55.7608 95.5507 55.7028C100.468 55.6621 108.382 51.6959 112.69 49.3183C114.057 48.5642 114.041 46.6056 112.661 45.8741C108.314 43.5679 100.334 39.7333 95.4168 39.774Z" fill="#A4E869"/>
<path d="M85.1244 45.9638C84.9793 46.561 84.9096 47.1841 84.9148 47.8256C84.9517 52.2236 88.5252 55.7605 95.5515 55.7022C100.47 55.6615 108.383 51.6953 112.691 49.3188C114.057 48.565 114.041 46.6064 112.662 45.8727C112.579 45.8279 112.494 45.7828 112.407 45.7379C108.048 48.1269 100.344 51.9425 95.5204 51.9824C89.518 52.0322 86.0348 49.458 85.1244 45.9638Z" fill="#54CE3E"/>
<path d="M108.125 26.9676C102.245 26.884 99.2384 29.8253 99.1853 33.5058C99.1321 37.1863 102.053 40.2121 107.933 40.2958C112.047 40.3543 118.744 37.1854 122.394 35.2774C123.551 34.6723 123.575 33.0336 122.435 32.3956C118.842 30.3845 112.24 27.0261 108.125 26.9676Z" fill="#A4E869"/>
<path d="M99.4405 31.8056C99.2783 32.3459 99.1924 32.916 99.1853 33.5064C99.1332 37.1863 102.053 40.2108 107.933 40.2945C112.048 40.3535 118.744 37.1855 122.395 35.2769C123.55 34.6731 123.574 33.0331 122.435 32.3968C122.139 32.2308 121.824 32.0561 121.494 31.8783C117.726 33.7954 111.679 36.526 107.856 36.4705C103.159 36.404 100.352 34.4607 99.4405 31.8056Z" fill="#54CE3E"/>
<path d="M114.138 1.49479C114.344 3.74245 114.554 6.98924 114.423 10.0772C114.323 12.5909 113.994 14.9968 113.264 16.6779C111.449 20.8462 108.671 22.6914 105.924 22.6194C105.135 22.6022 104.351 22.4239 103.594 22.0985C100.192 20.6384 98.6064 16.7537 100.94 11.3921C102.572 7.64111 108.228 2.8762 111.473 0.352647C112.503 -0.44907 114.02 0.201437 114.138 1.49479Z" fill="#A4E869"/>
<path d="M114.425 10.0765C114.325 12.5902 113.996 14.9962 113.266 16.6773C111.45 20.8456 108.673 22.6907 105.925 22.6188C105.457 18.1719 107.736 13.1016 114.425 10.0765Z" fill="#54CE3E"/>
<path d="M105.261 22.5631C104.698 22.4887 104.139 22.3329 103.594 22.0974C100.192 20.637 98.609 16.7531 100.941 11.3929C102.573 7.64137 108.226 2.87454 111.476 0.349353C112.504 -0.449355 114.02 0.201151 114.138 1.49341C114.169 1.82947 114.201 2.1863 114.229 2.55845C110.924 5.18536 105.938 9.54394 104.423 13.0289C102.56 17.3109 103.195 20.6493 105.261 22.5631Z" fill="#54CE3E"/>
<path d="M116.416 14.3233C111.059 16.7309 109.597 20.6629 111.126 24.0164C112.655 27.3698 116.594 28.8745 121.951 26.4669C125.7 24.782 130.403 19.0858 132.889 15.8176C133.677 14.781 132.997 13.2878 131.692 13.1918C127.579 12.8894 120.165 12.6384 116.416 14.3233Z" fill="#A4E869"/>
<path d="M110.628 22.3702C110.713 22.9278 110.88 23.4801 111.126 24.0174C112.656 27.3698 116.594 28.8739 121.951 26.4658C125.701 24.7811 130.403 19.086 132.89 15.8168C133.677 14.7826 132.995 13.2883 131.692 13.1934C131.353 13.1682 130.994 13.1428 130.618 13.1218C128.03 16.4479 123.727 21.4731 120.244 23.0374C115.964 24.9613 112.591 24.3882 110.628 22.3702Z" fill="#54CE3E"/>
<path d="M22.4194 74.0213C22.4194 74.0213 23.996 72.4933 26.9375 70.824C29.937 69.1199 34.3592 67.2691 39.9778 66.7416C51.0988 65.6951 54.5919 53.5833 61.2819 54.1053C67.9689 54.6242 66.9963 58.8508 77.1678 61.9529C84.9641 64.3343 90.7858 66.4274 93.9016 70.1265C94.8481 71.2536 95.5451 72.5281 95.972 74.0071C97.7923 80.338 45.48 96.8232 22.4194 74.0213Z" fill="#F9E8D4"/>
<path d="M22.4194 74.0213C22.4194 74.0213 23.996 72.4933 26.9375 70.824C30.6572 71.8158 37.4574 73.3927 46.0146 74.327C50.7563 74.843 55.5588 75.1055 60.2861 75.1055C72.3218 75.1055 83.6285 73.4304 93.9016 70.1265C94.8481 71.2536 95.5452 72.528 95.972 74.0071C97.7923 80.3379 45.4801 96.8231 22.4194 74.0213Z" fill="#EFCDB1"/>
<path d="M107.366 136.601C105.479 138.928 100.438 138.59 96.1085 135.854C95.5801 135.52 95.0893 135.165 94.6336 134.796C87.1421 138.017 76.2967 140 60.9335 140C44.2694 140 32.6201 137.682 24.6264 133.992C23.9412 134.652 23.1426 135.284 22.2396 135.854C17.9102 138.59 12.8694 138.928 10.9822 136.601C9.12081 134.312 11.0171 130.293 15.2157 127.554C4.59422 116.604 9.3447 101.027 13.6565 91.9137C15.7877 87.4047 17.8116 84.4784 17.8116 84.4784L96.8664 84.141C96.8664 84.141 99.7382 87.6585 102.749 92.9284C108.214 102.486 114.143 117.809 104.256 128.361C107.653 131.034 109.05 134.528 107.366 136.601Z" fill="#EFCDB1"/>
<path d="M102.749 92.9286C102.49 93.0352 102.229 93.1334 101.959 93.2228C89.0433 97.4868 75.0334 99.6491 60.3234 99.6491C35.6512 99.6491 17.0822 93.4593 16.3039 93.1968C15.3516 92.8739 14.466 92.4413 13.6558 91.9138C15.787 87.4049 17.8109 84.4785 17.8109 84.4785L96.8657 84.1411C96.866 84.1408 99.7375 87.6583 102.749 92.9286Z" fill="#D8AD8F"/>
<path d="M74.0293 116.97H44.2938C42.4145 116.97 40.8605 115.536 40.6988 113.677C40.2323 108.308 40.5835 102.664 41.0403 98.4263C41.476 94.3699 42.0072 91.6052 42.0072 91.6052L76.2994 90.9448C76.8656 93.1504 77.2255 95.8344 77.4433 98.6339C77.8693 104.068 77.7669 109.93 77.6325 113.526C77.5609 115.449 75.9681 116.97 74.0293 116.97Z" fill="#54CE3E"/>
<path d="M77.443 98.634C71.8623 99.3086 66.1479 99.6488 60.3231 99.6488C53.3136 99.6488 46.7951 99.15 41.04 98.4262C41.4757 94.3698 42.0069 91.6051 42.0069 91.6051L76.2991 90.9447C76.8653 93.1505 77.2255 95.8346 77.443 98.634Z" fill="#27A504"/>
<path d="M60.3227 95.3238C36.5012 95.3238 18.8129 89.4756 17.7094 89.1018C13.7049 87.7466 11.5153 83.2724 12.819 79.109C14.1213 74.9489 18.4177 72.6707 22.4199 74.0206C22.5119 74.0512 31.7928 77.126 45.5384 78.6248C58.0347 79.9876 76.9281 80.2916 95.9708 74.0061C99.9841 72.6811 104.272 74.9905 105.546 79.1637C106.82 83.3374 104.599 87.7945 100.585 89.1195C86.4921 93.7715 72.5927 95.3238 60.3227 95.3238Z" fill="#F9E8D4"/>
<path d="M73.4924 70.0239C72.3173 70.0239 71.3647 69.0781 71.3647 67.9113V67.6737C71.3647 66.5067 72.3173 65.5612 73.4924 65.5612C74.6675 65.5612 75.6201 66.507 75.6201 67.6737V67.9113C75.6203 69.0784 74.6678 70.0239 73.4924 70.0239Z" fill="#EFCDB1"/>
<path d="M66.4197 70.5718C65.2446 70.5718 64.292 69.626 64.292 68.4592V68.2216C64.292 67.0546 65.2446 66.109 66.4197 66.109C67.5947 66.109 68.5473 67.0548 68.5473 68.2216V68.4592C68.5473 69.6262 67.5947 70.5718 66.4197 70.5718Z" fill="#EFCDB1"/>
<path d="M61.282 64.5843C60.1069 64.5843 59.1543 63.6385 59.1543 62.4718V62.2342C59.1543 61.0671 60.1069 60.1216 61.282 60.1216C62.4571 60.1216 63.4096 61.0674 63.4096 62.2342V62.4718C63.4096 63.6385 62.4571 64.5843 61.282 64.5843Z" fill="#EFCDB1"/>
<path d="M55.3928 71.0841C54.2177 71.0841 53.2651 70.1383 53.2651 68.9715V68.7339C53.2651 67.5669 54.2177 66.6213 55.3928 66.6213C56.5679 66.6213 57.5205 67.5672 57.5205 68.7339V68.9715C57.5205 70.1383 56.5679 71.0841 55.3928 71.0841Z" fill="#EFCDB1"/>
</g>
<defs>
<clipPath id="clip0">
<rect width="141" height="140" fill="white" transform="translate(0.5)"/>
</clipPath>
</defs>
</svg>
