<svg width="130" height="129" viewBox="0 0 130 129" fill="none" xmlns="http://www.w3.org/2000/svg">
<g clip-path="url(#clip0)">
<path d="M121.915 2.42431L100.007 24.3098L106.279 30.6041L128.187 8.69638C129.023 7.86599 129.494 6.73819 129.499 5.56034C129.492 3.76699 128.408 2.15356 126.751 1.4683C125.094 0.783029 123.187 1.15997 121.915 2.42431Z" fill="#A56A43"/>
<path d="M44.9824 115.811V123.44C44.9824 125.896 46.974 127.888 49.4307 127.888H80.5686C83.0253 127.888 85.0169 125.896 85.0169 123.44V115.811H44.9824Z" fill="#E57E25"/>
<path d="M80.5692 52.2672C79.6656 52.2725 78.8486 51.7305 78.5021 50.896C78.1556 50.0615 78.3485 49.1003 78.99 48.464L101.565 25.889C102.437 25.0168 103.851 25.0168 104.723 25.889C105.595 26.7611 105.595 28.1751 104.723 29.0472L82.1483 51.6222C81.7286 52.0386 81.1604 52.2707 80.5692 52.2672Z" fill="#95A5A5"/>
<path d="M65 118.991C29.3776 118.991 0.5 90.1136 0.5 54.4913V52.2671C0.5 49.8104 2.49156 47.8188 4.94828 47.8188H125.052C127.508 47.8188 129.5 49.8104 129.5 52.2671V54.4913C129.5 90.1136 100.622 118.991 65 118.991Z" fill="#E57E25"/>
<path d="M120.915 47.8188C122.054 47.8594 123.129 48.351 123.905 49.1854C124.681 50.0198 125.094 51.1285 125.052 52.2671V54.4913C125.052 90.0775 98.1619 118.991 65 118.991C31.8381 118.991 4.94824 89.944 4.94824 54.4913V52.2671C4.90619 51.1285 5.31859 50.0198 6.09456 49.1854C6.87054 48.351 7.94642 47.8594 9.08514 47.8188H120.915Z" fill="#F29C1F"/>
<path d="M96.2707 52.2673H62.108C61.288 52.2713 60.5324 51.8238 60.1417 51.1029C59.7511 50.382 59.7887 49.5047 60.2397 48.8199C64.3099 42.5923 83.949 27.3347 99.2956 22.1302C100.079 21.8841 100.934 22.0893 101.52 22.664L107.814 28.9583C108.389 29.5444 108.594 30.3994 108.348 31.1825C105.733 38.2368 102.292 44.9561 98.0945 51.1997C97.7053 51.8401 97.0197 52.2414 96.2707 52.2673ZM67.2235 47.819H95.0697C98.475 42.5641 101.365 36.9928 103.699 31.1825L99.429 26.9121C87.4893 31.8218 76.568 38.9116 67.2235 47.819Z" fill="#95A5A5"/>
<path d="M36.0864 47.8188V52.2671C36.0864 54.7238 38.078 56.7154 40.5347 56.7154H71.6726C74.1293 56.7154 76.1209 58.707 76.1209 61.1637V87.8533C76.1209 90.31 78.1125 92.3016 80.5692 92.3016C83.0259 92.3016 85.0175 90.31 85.0175 87.8533V61.1637C85.0175 58.707 87.009 56.7154 89.4657 56.7154C91.9224 56.7154 93.914 58.707 93.914 61.1637V74.5085C93.914 76.9652 95.9056 78.9568 98.3623 78.9568C100.819 78.9568 102.811 76.9652 102.811 74.5085V61.1637C102.811 58.707 104.802 56.7154 107.259 56.7154C109.716 56.7154 111.707 54.7238 111.707 52.2671V47.8188H36.0864Z" fill="#F3D55B"/>
<path d="M11.6211 72.2842C10.5999 72.3248 9.68236 71.6642 9.39699 70.6828C8.08135 66.1367 7.33428 61.4451 7.17285 56.7152C7.17285 55.9206 7.59677 55.1864 8.28492 54.7891C8.97307 54.3918 9.82091 54.3918 10.5091 54.7891C11.1972 55.1864 11.6211 55.9206 11.6211 56.7152C11.8409 61.0307 12.5878 65.3032 13.8453 69.4373C14.0464 70.1246 13.9042 70.8668 13.4633 71.4311C13.0224 71.9955 12.3367 72.313 11.6211 72.2842Z" fill="#F3D55B"/>
<path d="M18.2941 86.8526C17.5422 86.8562 16.8394 86.4797 16.4259 85.8517C15.1982 83.9471 14.0842 81.9716 13.0897 79.9355C12.668 79.2164 12.6839 78.3219 13.1308 77.6182C13.5777 76.9145 14.3806 76.5198 15.2107 76.5957C16.0409 76.6716 16.7589 77.2053 17.0709 77.9783C17.9933 79.8468 19.0256 81.6589 20.1624 83.4052C20.6134 84.09 20.651 84.9673 20.2604 85.6882C19.8697 86.4091 19.1141 86.8566 18.2941 86.8526Z" fill="#F3D55B"/>
</g>
<defs>
<clipPath id="clip0">
<rect width="129" height="129" fill="white" transform="translate(0.5)"/>
</clipPath>
</defs>
</svg>
