<svg width="138" height="138" viewBox="0 0 138 138" fill="none" xmlns="http://www.w3.org/2000/svg">
<path d="M73.3125 40.4456V10.7812H56.0625V40.4456C56.0625 46.3031 53.7356 51.9206 49.5938 56.0625C45.4519 60.2044 43.125 65.8219 43.125 71.6794V116.794C43.125 118.415 43.769 119.97 44.9153 121.116C46.0616 122.262 47.6163 122.906 49.2374 122.906H80.1376C81.7587 122.906 83.3134 122.262 84.4597 121.116C85.606 119.97 86.25 118.415 86.25 116.794V71.6794C86.25 65.8219 83.9231 60.2044 79.7812 56.0625C75.6394 51.9206 73.3125 46.3031 73.3125 40.4456Z" fill="#DB3535"/>
<path d="M79.7812 56.0625C75.6394 51.9206 73.3125 46.3031 73.3125 40.4456V10.7812H56.0625V12.4143H64.6875V42.0787C64.6875 47.9362 67.0144 53.5537 71.1562 57.6956C75.2981 61.8375 77.625 67.455 77.625 73.3125V112.481C77.625 114.102 76.981 115.657 75.8347 116.803C74.6884 117.95 73.1337 118.594 71.5126 118.594H43.3945C43.7797 119.843 44.5549 120.935 45.6064 121.711C46.6578 122.487 47.9303 122.906 49.2372 122.906H80.1376C81.7587 122.906 83.3134 122.262 84.4597 121.116C85.606 119.97 86.25 118.415 86.25 116.794V71.6794C86.25 65.8219 83.9231 60.2044 79.7812 56.0625Z" fill="#BA2A2A"/>
<path d="M116.438 131.531H86.25V109.969C91.9022 100.078 94.8751 88.8825 94.875 77.4902V62.5312H107.813V77.4902C107.812 88.8825 110.785 100.078 116.438 109.969V131.531Z" fill="#FFD884"/>
<path d="M116.438 109.969C110.785 100.078 107.812 88.8825 107.813 77.4902V62.5312H101.344V77.4902C101.344 88.8825 104.317 100.078 109.969 109.969V131.531H116.438V109.969Z" fill="#FFBF41"/>
<path d="M47.4375 116.794V71.6794C47.4375 65.8219 49.7644 60.2044 53.9062 56.0625C58.0481 51.9206 60.375 46.3031 60.375 40.4456V10.7812H56.0625V40.4456C56.0625 46.3031 53.7356 51.9206 49.5938 56.0625C45.4519 60.2044 43.125 65.8219 43.125 71.6794V116.794C43.125 118.415 43.769 119.97 44.9153 121.116C46.0616 122.262 47.6163 122.906 49.2374 122.906H53.5499C51.9288 122.906 50.3741 122.262 49.2278 121.116C48.0815 119.97 47.4375 118.415 47.4375 116.794Z" fill="#D65151"/>
<path d="M57.3913 6.46875H71.9837C72.908 6.46875 73.7944 6.83592 74.448 7.48949C75.1016 8.14307 75.4688 9.0295 75.4688 9.95379V15.0938H53.9062V9.95379C53.9063 9.0295 54.2734 8.14307 54.927 7.48949C55.5806 6.83592 56.467 6.46875 57.3913 6.46875Z" fill="#1B4001"/>
<path d="M61.7038 6.46875H57.3913C56.467 6.46875 55.5806 6.83592 54.927 7.48949C54.2734 8.14307 53.9062 9.0295 53.9062 9.95379V15.0938H58.2187V9.95379C58.2187 9.0295 58.5859 8.14307 59.2395 7.48949C59.8931 6.83592 60.7795 6.46875 61.7038 6.46875Z" fill="#365902"/>
<path d="M101.344 28.0312C102.487 28.0312 103.584 28.4856 104.393 29.2944C105.202 30.1031 105.656 31.2 105.656 32.3438V38.8125H97.0312V32.3438C97.0312 31.2 97.4856 30.1031 98.2943 29.2944C99.1031 28.4856 100.2 28.0312 101.344 28.0312Z" fill="#48485E"/>
<path d="M101.344 28.0312V29.1859C101.344 29.6006 101.262 30.0113 101.103 30.3944C100.945 30.7776 100.712 31.1257 100.419 31.4189C100.126 31.7122 99.7776 31.9448 99.3944 32.1034C99.0113 32.2621 98.6006 32.3438 98.1859 32.3438H97.0312V38.8125H105.656V32.3438C105.656 31.2 105.202 30.1031 104.393 29.2944C103.584 28.4856 102.487 28.0312 101.344 28.0312Z" fill="#2F2F3F"/>
<path d="M108.458 36.6562H94.2295C91.0134 36.6562 88.4062 39.2634 88.4062 42.4795V43.7705C88.4062 46.9866 91.0134 49.5938 94.2295 49.5938H108.458C111.674 49.5938 114.281 46.9866 114.281 43.7705V42.4795C114.281 39.2634 111.674 36.6562 108.458 36.6562Z" fill="#FFD884"/>
<path d="M112.114 37.95C112.116 38.0228 112.125 38.0937 112.125 38.1657V39.4567C112.125 40.2214 111.975 40.9787 111.682 41.6853C111.39 42.3918 110.961 43.0339 110.42 43.5748C109.88 44.1156 109.238 44.5447 108.531 44.8375C107.825 45.1303 107.068 45.2811 106.303 45.2813H92.0744C90.7433 45.2826 89.4524 44.8257 88.4185 43.9875C88.4734 45.4923 89.1096 46.9171 90.1932 47.9626C91.2768 49.0081 92.7235 49.5928 94.2293 49.5938H108.459C110.003 49.5934 111.484 48.9799 112.575 47.8882C113.667 46.7965 114.281 45.3159 114.281 43.7719V42.4782C114.281 41.6094 114.087 40.7516 113.712 39.9679C113.337 39.1843 112.791 38.4947 112.114 37.95Z" fill="#FFBF41"/>
<path d="M114.281 105.656H88.4063C86.0245 105.656 84.0938 107.587 84.0938 109.969C84.0938 112.35 86.0245 114.281 88.4063 114.281H114.281C116.663 114.281 118.594 112.35 118.594 109.969C118.594 107.587 116.663 105.656 114.281 105.656Z" fill="#FFD884"/>
<path d="M114.281 109.969H88.4063C87.6498 109.969 86.9067 109.769 86.2518 109.391C85.5968 109.012 85.0531 108.468 84.6754 107.812C84.2943 108.467 84.0937 109.211 84.0938 109.969C84.0938 111.112 84.5481 112.209 85.3568 113.018C86.1656 113.827 87.2625 114.281 88.4063 114.281H114.281C115.425 114.281 116.522 113.827 117.331 113.018C118.139 112.209 118.594 111.112 118.594 109.969C118.594 109.211 118.393 108.467 118.012 107.812C117.634 108.468 117.091 109.012 116.436 109.391C115.781 109.769 115.038 109.969 114.281 109.969Z" fill="#FFBF41"/>
<path d="M107.813 49.5938H94.875C92.4933 49.5938 90.5625 51.5245 90.5625 53.9062C90.5625 56.288 92.4933 58.2188 94.875 58.2188H107.813C110.194 58.2188 112.125 56.288 112.125 53.9062C112.125 51.5245 110.194 49.5938 107.813 49.5938Z" fill="#FFD884"/>
<path d="M107.813 49.5938C107.813 50.7375 107.358 51.8344 106.549 52.6431C105.741 53.4519 104.644 53.9062 103.5 53.9062H90.5625C90.5625 55.05 91.0168 56.1469 91.8256 56.9556C92.6344 57.7644 93.7313 58.2188 94.875 58.2188H107.813C108.956 58.2188 110.053 57.7644 110.862 56.9556C111.671 56.1469 112.125 55.05 112.125 53.9062C112.125 52.7625 111.671 51.6656 110.862 50.8569C110.053 50.0481 108.956 49.5938 107.813 49.5938Z" fill="#FFBF41"/>
<path d="M107.813 58.2188H94.875C92.4933 58.2188 90.5625 60.1495 90.5625 62.5312C90.5625 64.913 92.4933 66.8438 94.875 66.8438H107.813C110.194 66.8438 112.125 64.913 112.125 62.5312C112.125 60.1495 110.194 58.2188 107.813 58.2188Z" fill="#FFD884"/>
<path d="M109.929 58.7761C109.794 59.8141 109.286 60.7675 108.5 61.4585C107.714 62.1494 106.703 62.5307 105.656 62.5312H92.7188C91.977 62.5316 91.2478 62.3395 90.6024 61.9738C90.5772 62.1586 90.5639 62.3448 90.5625 62.5312C90.5625 63.675 91.0168 64.7719 91.8256 65.5806C92.6344 66.3894 93.7313 66.8437 94.875 66.8437H107.813C108.956 66.8437 110.053 66.3894 110.862 65.5806C111.671 64.7719 112.125 63.675 112.125 62.5312C112.125 61.7668 111.922 61.0161 111.536 60.3562C111.15 59.6963 110.595 59.1509 109.929 58.7761Z" fill="#FFBF41"/>
<path d="M73.3125 36.6562L72.0495 37.9193C70.097 39.8718 67.4488 40.9687 64.6875 40.9688C61.9262 40.9687 59.278 39.8718 57.3255 37.9193L56.0625 36.6562V28.0312L57.3255 26.7682C59.278 24.8157 61.9262 23.7188 64.6875 23.7188C67.4488 23.7188 70.097 24.8157 72.0495 26.7682L73.3125 28.0312V36.6562Z" fill="#D1E3EE"/>
<path d="M72.0495 26.7682C70.6903 25.4072 68.9803 24.4501 67.1095 24.0032C65.2387 23.5563 63.2806 23.6373 61.4531 24.2371C63.0089 24.7445 64.423 25.6117 65.5807 26.7682C66.3894 27.5769 66.8437 28.6738 66.8438 29.8174V34.8701C66.8437 36.0137 66.3894 37.1106 65.5807 37.9193C64.423 39.0758 63.0089 39.943 61.4531 40.4504C63.2806 41.0502 65.2387 41.1312 67.1095 40.6843C68.9803 40.2374 70.6903 39.2803 72.0495 37.9193L73.3125 36.6563V28.0313L72.0495 26.7682Z" fill="#A9BFD1"/>
<path d="M62.3019 79.7813H67.0726C68.4583 79.7812 69.8305 80.0541 71.1108 80.5843C72.3911 81.1146 73.5543 81.8918 74.5342 82.8716C75.5141 83.8515 76.2914 85.0147 76.8217 86.295C77.3521 87.5752 77.625 88.9474 77.625 90.3331V109.969H51.75V90.3331C51.75 87.5346 52.8617 84.8507 54.8406 82.8718C56.8194 80.893 59.5033 79.7813 62.3019 79.7813Z" fill="#D1E3EE"/>
<path d="M62.3019 79.7813H67.0726C68.4583 79.7812 69.8305 80.0541 71.1108 80.5843C72.3911 81.1146 73.5543 81.8918 74.5342 82.8716C75.5141 83.8515 76.2914 85.0147 76.8217 86.295C77.3521 87.5752 77.625 88.9474 77.625 90.3331V109.969H51.75V90.3331C51.75 87.5346 52.8617 84.8507 54.8406 82.8718C56.8194 80.893 59.5033 79.7813 62.3019 79.7813Z" fill="#1B4001"/>
<path d="M62.6773 84.0938H66.6974C67.5661 84.0937 68.4263 84.2648 69.2289 84.5972C70.0314 84.9296 70.7607 85.4168 71.375 86.0311C71.9892 86.6453 72.4765 87.3746 72.8089 88.1771C73.1414 88.9797 73.3125 89.8399 73.3125 90.7086V105.656H56.0625V90.7086C56.0625 88.9542 56.7594 87.2717 57.9999 86.0312C59.2405 84.7907 60.923 84.0938 62.6773 84.0938Z" fill="#D1E3EE"/>
<path d="M66.8402 84.0973C66.8402 84.145 66.8438 84.1922 66.8438 84.2399V88.4063C66.8438 91.2656 65.7079 94.0079 63.686 96.0298C61.6641 98.0516 58.9219 99.1875 56.0625 99.1875V105.656H73.3125V90.7086C73.3123 88.9792 72.6346 87.3187 71.4248 86.0829C70.215 84.8471 68.5693 84.1343 66.8402 84.0973Z" fill="#A9BFD1"/>
<path d="M47.4375 77.7102V73.3125H30.1875V77.7102C30.1875 79.734 29.7889 81.738 29.0144 83.6078C28.2399 85.4776 27.1047 87.1765 25.6737 88.6076L23.9201 90.3612C22.489 91.7922 21.3538 93.4911 20.5793 95.3609C19.8048 97.2307 19.4062 99.2347 19.4063 101.259V125.267C19.4063 126.928 20.0662 128.522 21.241 129.697C22.4157 130.871 24.0091 131.531 25.6704 131.531H51.9546C53.6159 131.531 55.2093 130.871 56.384 129.697C57.5588 128.522 58.2188 126.928 58.2188 125.267V101.259C58.2188 99.2347 57.8202 97.2307 57.0457 95.3609C56.2712 93.4911 55.136 91.7922 53.7049 90.3612L51.9513 88.6076C50.5203 87.1765 49.3851 85.4776 48.6106 83.6078C47.8361 81.738 47.4375 79.734 47.4375 77.7102Z" fill="#330B06"/>
<path d="M23.7188 125.267V101.259C23.7187 99.2347 24.1173 97.2307 24.8918 95.3609C25.6663 93.4911 26.8015 91.7922 28.2326 90.3612L29.9862 88.6076C31.4172 87.1765 32.5524 85.4776 33.3269 83.6078C34.1014 81.738 34.5 79.734 34.5 77.7102V73.3125H30.1875V77.7102C30.1875 79.734 29.7889 81.738 29.0144 83.6078C28.2399 85.4776 27.1047 87.1765 25.6737 88.6076L23.9201 90.3612C22.489 91.7922 21.3538 93.4911 20.5793 95.3609C19.8048 97.2307 19.4062 99.2347 19.4063 101.259V125.267C19.4063 126.928 20.0662 128.522 21.241 129.697C22.4157 130.871 24.0091 131.531 25.6704 131.531H29.9829C28.3216 131.531 26.7282 130.871 25.5535 129.697C24.3787 128.522 23.7188 126.928 23.7188 125.267Z" fill="#873C1E"/>
<path d="M25.875 66.8438H51.75V75.4688H25.875V66.8438Z" fill="#F6F6E7"/>
<path d="M47.4375 66.8438V69.8029C47.4375 70.7337 47.0677 71.6264 46.4096 72.2846C45.7514 72.9427 44.8587 73.3125 43.9279 73.3125H25.875V75.4688H51.75V66.8438H47.4375Z" fill="#CCCBB2"/>
<path d="M19.4062 101.344H58.2188V122.906H19.4062V101.344Z" fill="#D98218"/>
<path d="M19.4062 101.344H23.7188V122.906H19.4062V101.344Z" fill="#FFD884"/>
<path d="M38.8125 118.594C44.7668 118.594 49.5938 115.698 49.5938 112.125C49.5938 108.552 44.7668 105.656 38.8125 105.656C32.8582 105.656 28.0312 108.552 28.0312 112.125C28.0312 115.698 32.8582 118.594 38.8125 118.594Z" fill="#D1E3EE"/>
<path d="M64.6875 103.5C68.2601 103.5 71.1562 100.604 71.1562 97.0312C71.1562 93.4587 68.2601 90.5625 64.6875 90.5625C61.1149 90.5625 58.2188 93.4587 58.2188 97.0312C58.2188 100.604 61.1149 103.5 64.6875 103.5Z" fill="#BA2A2A"/>
<path d="M64.6875 36.6562C67.0692 36.6562 69 34.7255 69 32.3438C69 29.962 67.0692 28.0312 64.6875 28.0312C62.3058 28.0312 60.375 29.962 60.375 32.3438C60.375 34.7255 62.3058 36.6562 64.6875 36.6562Z" fill="#1B4001"/>
</svg>
