<svg width="156" height="143" viewBox="0 0 156 143" fill="none" xmlns="http://www.w3.org/2000/svg">
<g clip-path="url(#clip0)">
<path d="M52.5001 37.7112C52.2387 37.2414 52.4221 36.6604 52.8925 36.3996C52.8953 36.398 52.8983 36.3962 52.9014 36.3947C56.3882 34.4544 57.4872 29.885 55.1006 26.5405C53.3212 24.0469 49.9977 23.0646 47.151 24.1962C45.0858 25.017 43.6919 26.6825 43.1346 28.5919C42.8854 29.4457 42.0045 29.9359 41.1474 29.6976C39.231 29.1644 37.0811 29.471 35.295 30.7933C32.8328 32.6159 31.9157 35.9581 33.0964 38.7847C34.6802 42.5759 39.1426 44.0509 42.6294 42.1106C42.6325 42.1091 42.6352 42.1073 42.6383 42.1057C43.1078 41.8434 43.6983 41.9939 43.9597 42.4638L49.0471 51.6065H49.9386L57.5878 47.4104V46.8543L52.5001 37.7112Z" fill="#FFDDA8"/>
<path d="M54.6186 48.9384L49.5312 39.7957C49.2698 39.3259 48.6793 39.1753 48.2098 39.4377C48.2068 39.4392 48.204 39.441 48.201 39.4425C44.7141 41.3828 40.2517 39.9078 38.6679 36.1166C37.7343 33.882 38.1167 31.3281 39.5323 29.4546C38.0805 29.411 36.5921 29.8333 35.295 30.7934C32.8328 32.616 31.9157 35.9581 33.0964 38.7847C34.6802 42.576 39.1426 44.0509 42.6295 42.1107C42.6325 42.1092 42.6352 42.1073 42.6383 42.1058C43.1078 41.8435 43.6983 41.994 43.9597 42.4638L49.0471 51.6066H49.9386L54.802 48.9384H54.6186Z" fill="#FFD086"/>
<path d="M76.11 60.2173C72.0143 59.0546 68.4227 56.5607 65.8502 53.1683L63.1391 49.5931C61.0517 46.8406 57.2574 46.0435 54.2389 47.723L51.5512 49.2184C48.5327 50.8981 47.21 54.5425 48.4486 57.7673L50.057 61.9543C50.4729 63.0375 50.7825 64.148 50.9952 65.2736L52.0165 66.8314L70.4473 73.3219L83.3362 65.733V63.9308C81.1815 62.2136 78.7196 60.9583 76.11 60.2173Z" fill="#CB6C35"/>
<path d="M59.6538 69.5213L70.4471 73.322L83.336 65.7331V63.9309C81.2949 62.3051 78.9774 61.0988 76.5219 60.3459C71.7682 61.7521 67.3968 63.9589 63.5916 66.7992C62.307 67.7578 60.9926 68.6636 59.6538 69.5213Z" fill="#AE5E2E"/>
<path d="M127.289 129.194C135.774 129.194 142.653 122.315 142.653 113.83C142.653 105.344 135.774 98.4651 127.289 98.4651C118.803 98.4651 111.924 105.344 111.924 113.83C111.924 122.315 118.803 129.194 127.289 129.194Z" fill="#FFA90F"/>
<path d="M127.289 131.234C125.989 131.234 124.935 130.18 124.935 128.88V98.7788C124.935 97.4784 125.989 96.4248 127.289 96.4248C128.589 96.4248 129.643 97.4787 129.643 98.7788V128.88C129.643 130.18 128.589 131.234 127.289 131.234Z" fill="#FFC365"/>
<path d="M139.146 123.393L113.078 108.343C111.952 107.693 111.566 106.253 112.216 105.127C112.866 104.001 114.306 103.615 115.432 104.266L141.5 119.316C142.626 119.966 143.012 121.406 142.362 122.532C141.712 123.657 140.272 124.043 139.146 123.393Z" fill="#FFC365"/>
<path d="M112.216 122.532C111.566 121.406 111.952 119.966 113.078 119.316L139.146 104.266C140.272 103.616 141.712 104.002 142.362 105.127C143.012 106.253 142.626 107.693 141.5 108.343L115.432 123.393C114.306 124.043 112.866 123.658 112.216 122.532Z" fill="#FFC365"/>
<path d="M104.719 58.1823C95.2279 58.1823 86.505 61.2517 79.6289 66.3842C76.8114 68.4872 73.8556 70.3488 70.792 71.9618L70.2228 74.2074L47.3716 82.7014L58.4969 106.297C58.4969 106.297 46.5309 119.329 63.3719 129.611C64.283 130.167 65.0243 130.708 65.6141 131.234H114.951L114.511 129.193C117.053 129.193 119.522 128.852 121.882 128.212C116.065 126.024 111.925 120.411 111.925 113.829C111.925 105.343 118.803 98.4644 127.289 98.4644C133.314 98.4644 138.527 101.933 141.045 106.982C141.565 105.529 142.368 104.149 143.462 102.928C143.771 102.581 144.097 102.259 144.436 101.956C144.733 100.143 144.898 98.2786 144.913 96.3749C144.915 96.1449 144.915 95.913 144.915 95.6802C144.915 74.9709 126.919 58.1823 104.719 58.1823Z" fill="#CB6C35"/>
<path d="M152.228 105.107C149.048 105.331 145.95 106.743 143.656 109.306C143.178 109.84 142.758 110.406 142.388 110.992C142.556 111.892 142.649 112.82 142.652 113.768C142.672 113.767 142.692 113.768 142.712 113.767C145.794 113.549 148.799 112.18 151.023 109.695C152.174 108.409 153.002 106.947 153.519 105.409C153.139 105.191 152.698 105.073 152.228 105.107Z" fill="#00E49D"/>
<path d="M143.776 109.363C146 106.878 149.004 105.509 152.087 105.291C152.584 105.256 153.052 105.389 153.44 105.638C153.978 104.136 154.214 102.554 154.151 100.985C154.101 99.7319 153.024 98.7679 151.773 98.8563C148.69 99.0738 145.686 100.443 143.462 102.928C142.368 104.15 141.565 105.53 141.044 106.984C141.696 108.292 142.165 109.705 142.423 111.19C142.81 110.552 143.26 109.939 143.776 109.363Z" fill="#00D391"/>
<path d="M95.1826 113.842C92.3758 115.159 90.4292 118.005 90.4292 121.31C90.4292 124.616 92.3758 127.462 95.1826 128.779C98.2984 127.726 100.542 124.781 100.542 121.31C100.542 117.839 98.2984 114.894 95.1826 113.842Z" fill="#F27182"/>
<path d="M90.6602 121.31C90.6602 117.997 92.7052 115.162 95.6013 113.996C94.6918 113.63 93.6994 113.427 92.6589 113.427C90.0755 113.427 87.7824 114.669 86.3446 116.59L85.8994 117.013V124.978L86.3446 126.031C87.7824 127.951 90.0755 129.194 92.6589 129.194C93.6994 129.194 94.6918 128.99 95.6013 128.624C92.7052 127.458 90.6602 124.624 90.6602 121.31Z" fill="#ED5469"/>
<path d="M127.289 131.548C117.519 131.548 109.57 123.599 109.57 113.829C109.57 104.059 117.519 96.1104 127.289 96.1104C137.059 96.1104 145.007 104.059 145.007 113.829C145.007 123.599 137.059 131.548 127.289 131.548ZM127.289 100.819C120.115 100.819 114.279 106.656 114.279 113.829C114.279 121.003 120.115 126.84 127.289 126.84C134.463 126.84 140.299 121.003 140.299 113.829C140.299 106.655 134.463 100.819 127.289 100.819Z" fill="#FFD086"/>
<path d="M74.9551 42.4369C73.655 42.4369 72.6011 41.383 72.6011 40.0829V24.3921C72.6011 23.0917 73.655 22.0381 74.9551 22.0381C76.2552 22.0381 77.3091 23.092 77.3091 24.3921V40.0829C77.3091 41.383 76.2552 42.4369 74.9551 42.4369Z" fill="#DBEDFF"/>
<path d="M89.1841 42.437C87.884 42.437 86.8301 41.3831 86.8301 40.083V19.7107C86.8301 18.4103 87.884 17.3567 89.1841 17.3567C90.4842 17.3567 91.5381 18.4106 91.5381 19.7107V40.083C91.5381 41.3831 90.4842 42.437 89.1841 42.437Z" fill="#DBEDFF"/>
<path d="M103.414 42.437C102.113 42.437 101.06 41.3831 101.06 40.083V15.2863C101.06 13.9859 102.113 12.9323 103.414 12.9323C104.714 12.9323 105.768 13.9862 105.768 15.2863V40.083C105.768 41.3831 104.714 42.437 103.414 42.437Z" fill="#DBEDFF"/>
<path d="M117.643 42.437C116.342 42.437 115.289 41.3831 115.289 40.083V19.7107C115.289 18.4103 116.342 17.3567 117.643 17.3567C118.943 17.3567 119.997 18.4106 119.997 19.7107V40.083C119.997 41.3831 118.943 42.437 117.643 42.437Z" fill="#DBEDFF"/>
<path d="M131.872 42.4369C130.572 42.4369 129.518 41.383 129.518 40.0829V24.3921C129.518 23.0917 130.572 22.0381 131.872 22.0381C133.172 22.0381 134.226 23.092 134.226 24.3921V40.0829C134.226 41.383 133.172 42.4369 131.872 42.4369Z" fill="#DBEDFF"/>
<path d="M95.9632 100.312C98.4035 101.957 101.209 102.637 103.933 102.447C103.143 99.8232 101.479 97.4448 99.0299 95.7931C96.5744 94.1374 93.7381 93.4878 91.0029 93.7441C91.85 96.333 93.5297 98.6706 95.9632 100.312Z" fill="#00E49D"/>
<path d="M103.848 102.181C101.16 102.4 98.3809 101.743 95.9699 100.117C93.6037 98.5216 91.9718 96.2477 91.1506 93.7295C90.756 93.7618 90.3633 93.8121 89.9739 93.8818C88.7396 94.1027 87.9316 95.3011 88.1897 96.528C88.8255 99.5524 90.5918 102.342 93.3566 104.206C96.1213 106.071 99.3699 106.662 102.412 106.118C103.646 105.897 104.454 104.699 104.196 103.472C104.105 103.036 103.987 102.605 103.848 102.181Z" fill="#00D391"/>
<path d="M82.132 113.712C79.0836 114.893 76.9185 117.845 76.9185 121.31C76.9185 124.775 79.0836 127.728 82.132 128.908C85.4653 127.988 87.9144 124.936 87.9144 121.31C87.914 117.684 85.4653 114.632 82.132 113.712Z" fill="#FFC365"/>
<path d="M77.1035 121.31C77.1035 117.822 79.3695 114.865 82.509 113.826C81.7293 113.568 80.8969 113.427 80.031 113.427C75.677 113.427 72.1475 116.956 72.1475 121.31C72.1475 125.664 75.677 129.194 80.031 129.194C80.8972 129.194 81.7296 129.052 82.509 128.794C79.3695 127.755 77.1035 124.798 77.1035 121.31Z" fill="#FFA90F"/>
<path d="M58.6372 106.309L47.4859 82.6591L37.9979 86.1858H36.9011C28.5289 92.2668 23.5792 100.352 24.3105 108.784C24.3105 120.056 32.7098 129.194 43.0713 129.194L45.4262 131.234H66.0923C65.4561 130.579 64.5764 129.898 63.422 129.194C46.8915 119.102 58.6372 106.309 58.6372 106.309Z" fill="#AE5E2E"/>
<path d="M155.23 132.913C156.751 131.662 155.866 129.194 153.897 129.194H2.10279C0.133286 129.194 -0.751526 131.662 0.769779 132.913L4.59635 136.06C10.1048 140.591 17.0154 143.068 24.1475 143.068H131.852C138.985 143.068 145.895 140.591 151.404 136.06L155.23 132.913Z" fill="#DBEDFF"/>
<path d="M34.6946 132.913C33.1733 131.662 34.0581 129.194 36.0276 129.194H2.10279C0.133286 129.194 -0.751526 131.662 0.769779 132.913L4.59635 136.06C10.1048 140.591 17.0154 143.068 24.1475 143.068H58.0727C50.9405 143.068 44.0299 140.591 38.5215 136.06L34.6946 132.913Z" fill="#B5DCFF"/>
<path d="M30.3598 49.2836C30.3623 49.2814 30.3647 49.279 30.3675 49.2765C33.315 46.5871 33.3348 41.8873 30.2432 39.1807C27.9382 37.1631 24.4782 36.9708 21.9675 38.7258C20.1461 39.9994 19.1723 41.9406 19.0687 43.9268C19.0224 44.815 18.2778 45.4948 17.389 45.4597C15.4015 45.3811 13.3793 46.1736 11.9448 47.871C9.96742 50.2107 9.8428 53.6741 11.6414 56.1537C14.0539 59.4796 18.736 59.8894 21.6836 57.2C21.686 57.1975 21.6884 57.1954 21.6909 57.1933C22.0876 56.8301 22.697 56.841 23.0592 57.238L30.1115 64.9671H31.3016L37.3317 59.1414V58.3794L30.2794 50.6504C29.9171 50.2531 29.9622 49.6452 30.3598 49.2836Z" fill="#FFDDA8"/>
<path d="M34.5581 61.6189L27.5058 53.8899C27.1436 53.4929 26.5342 53.4819 26.1375 53.8451C26.135 53.8472 26.1326 53.8497 26.1302 53.8518C23.1826 56.5413 18.5005 56.1315 16.088 52.8055C14.5527 50.6888 14.4235 47.8577 15.6471 45.6185C14.2659 45.9263 12.9585 46.6715 11.9448 47.8711C9.96742 50.2108 9.8428 53.6742 11.6414 56.1537C14.0539 59.4797 18.736 59.8895 21.6836 57.2C21.686 57.1976 21.6884 57.1954 21.6909 57.1933C22.0876 56.8301 22.6969 56.8411 23.0592 57.2381L30.1115 64.9671H31.3016L34.7671 61.6189H34.5581Z" fill="#FFD086"/>
<path d="M72.7389 73.8284C68.8953 69.6161 63.7077 67.3654 58.4283 67.1289C54.1752 66.9385 50.1067 65.3368 46.8234 62.6263L44.5852 60.7786C44.3079 60.966 44.0379 61.1689 43.7841 61.4005L41.4582 63.5226C38.8458 65.9062 38.3854 69.8486 40.378 72.7699L42.9654 76.5633C45.4678 80.232 46.619 84.6177 46.4611 89.0558C46.26 94.715 48.3194 100.458 52.7118 104.814C53.6655 105.76 54.6938 106.592 55.7769 107.316L61.4441 107.965C64.7494 107.33 67.9322 105.888 70.6649 103.616C79.7802 96.041 80.6376 82.4849 72.7389 73.8284Z" fill="#DD8858"/>
<path d="M53.0041 104.304C48.7135 100.049 46.7019 94.4394 46.8981 88.9115C47.0523 84.5764 45.928 80.2922 43.4835 76.7088L40.9561 73.0035C39.0095 70.1498 39.4595 66.2988 42.011 63.9704L44.283 61.8973C44.5542 61.6502 44.8427 61.4336 45.1404 61.2367L43.3638 59.77C40.6999 57.5707 36.824 57.6667 34.2722 59.9951L32.0002 62.0682C29.4484 64.3967 28.9987 68.2476 30.945 71.1013L33.4724 74.8066C35.9169 78.3903 37.0412 82.6742 36.887 87.0093C36.6905 92.5373 38.7024 98.1472 42.993 102.402C44.7894 104.184 46.8509 105.564 49.0569 106.546L57.1655 107.475C55.675 106.616 54.2725 105.562 53.0041 104.304Z" fill="#CB6C35"/>
<path d="M62.1336 106.202C59.5526 106.089 56.9147 106.769 54.6079 108.324C52.2624 109.906 50.6283 112.145 49.7773 114.629C52.3788 114.782 55.0487 114.118 57.3763 112.549C59.7324 110.96 61.3603 108.699 62.1845 106.193L62.1336 106.202Z" fill="#00E49D"/>
<path d="M54.7252 108.417C56.9981 106.884 59.5974 106.214 62.1407 106.325C62.3034 105.848 62.4402 105.363 62.5438 104.871C62.8018 103.644 61.9938 102.445 60.7595 102.224C57.7172 101.68 54.4689 102.271 51.7042 104.136C48.9395 106 47.1732 108.789 46.5373 111.814C46.2792 113.041 47.0873 114.239 48.3216 114.46C48.863 114.557 49.4108 114.616 49.9614 114.64C50.799 112.188 52.4105 109.977 54.7252 108.417Z" fill="#00D391"/>
</g>
<defs>
<clipPath id="clip0">
<rect width="156" height="143" fill="white"/>
</clipPath>
</defs>
</svg>
