<svg width="144" height="143" viewBox="0 0 144 143" fill="none" xmlns="http://www.w3.org/2000/svg">
<path d="M91.9165 134.398C93.1626 135.615 94.8356 136.297 96.5777 136.297H100.663C100.076 136.297 99.495 136.181 98.9528 135.957C98.4106 135.732 97.9179 135.403 97.503 134.988C96.7798 134.265 95.8307 133.813 94.8141 133.705C93.7974 133.598 92.7747 133.842 91.9165 134.398Z" fill="#5AC5F3"/>
<path d="M124.097 82.7864C123.155 85.6128 123.155 88.6685 124.097 91.4949L124.918 93.9583C125.387 95.3621 125.626 96.8325 125.625 98.3125V129.594C125.625 131.371 124.918 133.076 123.661 134.333C122.404 135.59 120.7 136.296 118.922 136.297H114.07C113.483 136.297 112.901 136.182 112.358 135.956C111.901 135.764 111.478 135.498 111.107 135.169C111.037 135.11 110.97 135.048 110.909 134.987C110.847 134.926 110.783 134.864 110.716 134.805C110.604 134.708 110.49 134.616 110.37 134.529C110.308 134.481 110.244 134.44 110.18 134.395C109.321 133.841 108.298 133.597 107.281 133.705C106.264 133.813 105.315 134.265 104.591 134.987C104.176 135.402 103.683 135.732 103.141 135.956C102.598 136.181 102.017 136.297 101.43 136.297H96.5781C94.8005 136.296 93.0958 135.59 91.8388 134.333C90.5818 133.076 89.8754 131.371 89.875 129.594V98.3125C89.8745 96.8325 90.1131 95.3621 90.5816 93.9583L91.4028 91.4949C92.3449 88.6685 92.3449 85.6128 91.4028 82.7864L90.5816 80.323C90.1131 78.9191 89.8745 77.4487 89.875 75.9688V66.6849C89.8759 61.0976 91.6218 55.65 94.8688 51.1029L101.047 42.4531V31.2812H114.453V42.4531L120.631 51.1029C123.88 55.6492 125.626 61.0973 125.625 66.6849V75.9688C125.626 77.4487 125.387 78.9191 124.918 80.323L124.879 80.4375L124.097 82.7864Z" fill="#529EDC"/>
<path d="M125.625 66.6849V75.9688C125.626 77.4487 125.387 78.9191 124.918 80.323L124.879 80.4375L124.097 82.7864C123.155 85.6128 123.155 88.6685 124.097 91.4949L124.918 93.9583C125.387 95.3621 125.626 96.8325 125.625 98.3125V129.594C125.625 131.371 124.918 133.076 123.661 134.333C122.404 135.59 120.7 136.296 118.922 136.297H114.453C113.245 136.291 112.072 135.895 111.107 135.169C111.037 135.11 110.97 135.048 110.909 134.987C110.847 134.926 110.783 134.864 110.716 134.805C110.604 134.708 110.49 134.616 110.37 134.529C110.306 134.484 110.241 134.44 110.177 134.398L110.18 134.395C110.825 133.773 111.338 133.027 111.688 132.202C112.038 131.377 112.219 130.49 112.219 129.594V98.3125C112.219 96.8325 111.981 95.3621 111.512 93.9583L110.691 91.4949C109.749 88.6685 109.749 85.6128 110.691 82.7864L111.473 80.4375L111.512 80.323C111.981 78.9191 112.219 77.4487 112.219 75.9688V66.6849C112.219 65.3046 112.113 63.9263 111.9 62.5625C111.258 58.4301 109.656 54.5055 107.225 51.1029L101.047 42.4531V31.2812H114.453V42.4531L120.631 51.1029C123.88 55.6492 125.626 61.0973 125.625 66.6849Z" fill="#59B4FF"/>
<path d="M125.307 62.5625H105.516V58.0938H124.212C124.703 59.5494 125.07 61.0444 125.307 62.5625Z" fill="#2D7DBF"/>
<path d="M105.516 67.0312H125.625V71.5H105.516V67.0312Z" fill="#2D7DBF"/>
<path d="M125.625 75.9688C125.626 77.4488 125.387 78.9191 124.918 80.323L124.879 80.4375H105.516V75.9688H125.625Z" fill="#2D7DBF"/>
<path d="M105.516 98.3125H125.625V102.781H105.516V98.3125Z" fill="#2D7DBF"/>
<path d="M105.516 107.25H125.625V111.719H105.516V107.25Z" fill="#2D7DBF"/>
<path d="M105.516 116.188H125.625V120.656H105.516V116.188Z" fill="#2D7DBF"/>
<path d="M103.281 87.1406L101.047 91.6094L103.281 96.0781V100.547L101.047 105.016L103.281 109.484V113.953L101.047 118.422L103.281 122.891V131.828C103.301 132.818 103 133.787 102.424 134.592C101.849 135.397 101.029 135.995 100.086 136.297H96.5781C94.8005 136.296 93.0958 135.59 91.8388 134.333C90.5818 133.076 89.8754 131.371 89.875 129.594V98.3125C89.8745 96.8325 90.1131 95.3621 90.5816 93.9583L91.4028 91.4949C92.3449 88.6685 92.3449 85.6128 91.4028 82.7864L90.5816 80.323C90.1131 78.9191 89.8745 77.4487 89.875 75.9688V66.6849C89.875 64.543 90.132 62.4088 90.6403 60.3281H94.3437V69.2656L100.812 72.4999C101.554 72.8712 102.178 73.4417 102.614 74.1476C103.05 74.8535 103.281 75.6669 103.281 76.4966V87.1406Z" fill="#59B4FF"/>
<path d="M76.4688 53.625V121.215C76.4688 124.016 75.6888 126.761 74.2163 129.144C72.7437 131.527 70.6368 133.452 68.1316 134.705C65.6264 135.957 62.8219 136.487 60.0323 136.236C57.2427 135.984 54.5782 134.961 52.3375 133.28C50.9193 132.217 49.1945 131.642 47.4219 131.642C45.6493 131.642 43.9245 132.217 42.5063 133.28C40.4002 134.86 37.9174 135.861 35.3047 136.183C32.692 136.506 30.0404 136.139 27.6134 135.119C25.1864 134.099 23.0686 132.462 21.4704 130.37C19.8722 128.279 18.8494 125.805 18.5035 123.195C18.4183 122.538 18.3753 121.877 18.375 121.215V53.625C18.3764 47.4852 20.3234 41.5037 23.9364 36.5394C27.5493 31.5751 32.6424 27.8833 38.4844 25.9942V6.70312H56.3594V25.9942C62.2037 27.8796 67.2992 31.5704 70.9127 36.5355C74.5263 41.5006 76.4716 47.4841 76.4688 53.625Z" fill="#47BFF3"/>
<path d="M76.4692 53.625V121.215C76.4692 124.016 75.6892 126.761 74.2167 129.144C72.7442 131.527 70.6373 133.452 68.132 134.705C65.6268 135.957 62.8223 136.487 60.0327 136.236C57.2431 135.984 54.5787 134.961 52.3379 133.28C50.9197 132.217 49.1949 131.642 47.4223 131.642C45.6497 131.642 43.9249 132.217 42.5067 133.28C40.4006 134.86 37.9178 135.861 35.3052 136.183C32.6925 136.506 30.0408 136.139 27.6139 135.119C25.1869 134.099 23.069 132.462 21.4708 130.37C19.8727 128.278 18.8498 125.805 18.5039 123.195C37.6357 110.015 58.0524 85.5626 73.4835 40.7913C75.4539 44.7821 76.4757 49.1742 76.4692 53.625Z" fill="#5AC5F3"/>
<path d="M37.4873 38.7611L35.0127 35.0409C36.7261 33.9024 38.5877 33.0045 40.5453 32.3722L41.92 36.625C40.3517 37.1311 38.8602 37.8498 37.4873 38.7611Z" fill="#CDF0FF"/>
<path d="M29.6562 51.6361L25.2134 51.1451C25.7605 46.2654 27.8952 41.7004 31.2892 38.1519L34.512 41.2482C31.7983 44.0848 30.0921 47.7347 29.6562 51.6361Z" fill="#CDF0FF"/>
<path d="M34.0156 15.6406H60.8281V20.1094H34.0156V15.6406Z" fill="#CDF0FF"/>
<path d="M18.375 58.0938H76.4688V107.25H18.375V58.0938Z" fill="#F35244"/>
<path d="M25.0781 64.7969H29.5469V69.2656H25.0781V64.7969Z" fill="#FC685B"/>
<path d="M25.0781 73.7344H29.5469V93.8438H25.0781V73.7344Z" fill="#FC685B"/>
<path d="M38.4844 20.1094H56.3594V26.8125H38.4844V20.1094Z" fill="#5AC5F3"/>
<path d="M76.4684 58.0938V107.25H36.6323C47.2624 95.634 57.6885 79.7504 66.8662 58.0938H76.4684Z" fill="#EA4A3B"/>
<path d="M96.5781 91.6094L98.8125 96.0781V100.547L96.5781 105.016L98.8125 109.484V113.953L96.5781 118.422L98.8125 122.891V131.828C98.8125 133.013 98.3417 134.15 97.5036 134.988C96.6656 135.826 95.5289 136.297 94.3438 136.297H72C70.8148 136.297 69.6782 135.826 68.8401 134.988C68.0021 134.15 67.5313 133.013 67.5313 131.828V122.891L69.7656 118.422L67.5313 113.953V109.484L69.7656 105.016L67.5313 100.547V96.0781L69.7656 91.6094L67.5313 87.1406V76.4966C67.5312 75.6669 67.7621 74.8535 68.1982 74.1476C68.6342 73.4417 69.2582 72.8712 70.0002 72.4999L76.4688 69.2656V60.3281H89.875V69.2656L96.3435 72.4999C97.0855 72.8712 97.7095 73.4417 98.1456 74.1476C98.5816 74.8535 98.8126 75.6669 98.8125 76.4966V87.1406L96.5781 91.6094Z" fill="#60D1E0"/>
<path d="M98.8125 87.1406L96.5781 91.6094L98.8125 96.0781V100.547L96.5781 105.016L98.8125 109.484V113.953L96.5781 118.422L98.8125 122.891V131.828C98.8125 133.013 98.3417 134.15 97.5036 134.988C96.6656 135.826 95.5289 136.297 94.3438 136.297H85.4062C86.5914 136.297 87.7281 135.826 88.5661 134.988C89.4042 134.15 89.875 133.013 89.875 131.828V122.891L87.6406 118.422L89.875 113.953V109.484L87.6406 105.016L89.875 100.547V96.0781L87.6406 91.6094L89.875 87.1406V76.4966C89.8751 75.6669 89.6441 74.8535 89.2081 74.1476C88.772 73.4417 88.148 72.8712 87.406 72.4999L80.9375 69.2656V60.3281H89.875V69.2656L96.3435 72.4999C97.0855 72.8712 97.7095 73.4417 98.1456 74.1476C98.5816 74.8535 98.8126 75.6669 98.8125 76.4966V87.1406Z" fill="#5AC6D4"/>
<path d="M96.5781 91.6094L97.6953 93.8438H76.4688V89.375H97.6953L96.5781 91.6094Z" fill="#3FB7C7"/>
<path d="M96.5781 105.016L97.6953 107.25H76.4688V102.781H97.6953L96.5781 105.016Z" fill="#3FB7C7"/>
<path d="M96.5781 118.422L97.6953 120.656H76.4688V116.188H97.6953L96.5781 118.422Z" fill="#3FB7C7"/>
<path d="M74.2344 78.2031H78.7031V84.9062H74.2344V78.2031Z" fill="#9FE4ED"/>
<path d="M83.1719 64.7969C86.8739 64.7969 89.875 62.7961 89.875 60.3281C89.875 57.8601 86.8739 55.8594 83.1719 55.8594C79.4698 55.8594 76.4688 57.8601 76.4688 60.3281C76.4688 62.7961 79.4698 64.7969 83.1719 64.7969Z" fill="#3FB7C7"/>
</svg>
