<svg width="166" height="117" viewBox="0 0 166 117" fill="none" xmlns="http://www.w3.org/2000/svg">
<path d="M130.934 59.6083C131.792 59.9368 132.715 60.0463 133.624 59.9272C134.533 59.8082 135.399 59.4642 136.149 58.925C136.899 58.3857 137.51 57.6674 137.929 56.832C138.348 55.9966 138.563 55.0692 138.555 54.1298C140.821 54.1298 142.995 53.2063 144.598 51.5624C146.201 49.9186 147.101 47.689 147.101 45.3642C147.101 43.0394 146.201 40.8099 144.598 39.166C142.995 37.5222 140.821 36.5986 138.555 36.5986C137.083 36.6081 135.64 37.011 134.367 37.7674C133.918 37.0519 133.37 36.4071 132.74 35.8536C133.453 35.4558 134.074 34.9062 134.562 34.2417C135.05 33.5771 135.394 32.8131 135.571 32.001C135.747 31.1888 135.752 30.3474 135.585 29.5331C135.418 28.7189 135.083 27.9508 134.602 27.2805C134.121 26.6102 133.506 26.0531 132.798 25.6468C132.09 25.2405 131.306 24.9944 130.498 24.9249C129.689 24.8555 128.876 24.9643 128.112 25.2442C127.348 25.5241 126.651 25.9684 126.068 26.5474C125.257 25.0147 124.016 23.7671 122.505 22.9663C120.994 22.1656 119.284 21.8486 117.596 22.0564C115.907 22.2641 114.319 22.9872 113.036 24.1318C111.753 25.2763 110.834 26.7897 110.4 28.4759C108.528 27.6952 106.447 27.6225 104.528 28.2706C102.609 28.9187 100.978 30.2455 99.9247 32.0139C98.8718 33.7822 98.4661 35.877 98.7802 37.9239C99.0944 39.9707 100.108 41.8364 101.64 43.1874C100.859 43.6173 100.187 44.2286 99.6778 44.9724C99.1685 45.7162 98.836 46.5719 98.7067 47.471C98.5775 48.3702 98.6552 49.2879 98.9335 50.1508C99.2119 51.0136 99.6832 51.7977 100.31 52.4404C100.936 53.0831 101.701 53.5665 102.542 53.852C103.383 54.1375 104.278 54.2171 105.155 54.0846C106.032 53.952 106.866 53.611 107.591 53.0887C108.316 52.5663 108.912 51.8772 109.331 51.0765C110.126 52.0309 111.112 52.7979 112.222 53.3249C113.332 53.8519 114.541 54.1265 115.764 54.1298C115.758 55.9429 116.302 57.7129 117.321 59.1944C118.34 60.6759 119.784 61.7954 121.451 62.3976C123.118 62.9997 124.927 63.0547 126.626 62.5549C128.326 62.0551 129.831 61.0253 130.934 59.6083Z" fill="#5BA006"/>
<path d="M120.06 13.1741C123.265 16.4613 125.065 20.9197 125.065 25.5686C125.065 30.2174 123.265 34.6759 120.06 37.9631C118.457 39.6067 116.284 40.5301 114.017 40.5301C111.751 40.5301 109.578 39.6067 107.975 37.9631L95.8904 25.5686C94.2879 23.925 93.3876 21.6957 93.3876 19.3713C93.3876 17.0469 94.2879 14.8177 95.8904 13.174C99.0955 9.88681 103.442 8.04006 107.975 8.04006C112.508 8.04006 116.855 9.88681 120.06 13.1741Z" fill="#F9E109"/>
<path d="M85.8237 48.3153C84.8151 47.2809 84.0326 46.0383 83.528 44.67C83.0234 43.3017 82.8082 41.839 82.8969 40.3789C82.9855 38.9189 83.3759 37.4948 84.0421 36.2013C84.7083 34.9078 85.6351 33.7743 86.7609 32.8762L95.8942 25.5891L107.982 37.9865L100.877 47.354C100.001 48.5088 98.8961 49.4593 97.6349 50.1426C96.3737 50.8259 94.9852 51.2262 93.5617 51.3171C92.1381 51.4081 90.7119 51.1874 89.3779 50.6699C88.0438 50.1523 86.8323 49.3497 85.8237 48.3153Z" fill="#FCBC04"/>
<path d="M122.914 26.2991C121.312 27.9424 119.138 28.8655 116.872 28.8655C114.606 28.8655 112.432 27.9424 110.83 26.2991L98.7422 13.9016C98.1955 13.3255 97.7303 12.6734 97.3605 11.9644C96.8491 12.3456 96.3593 12.7563 95.8934 13.1945C94.2912 14.8383 93.3911 17.0675 93.3911 19.3918C93.3911 21.7161 94.2912 23.9453 95.8934 25.5891L107.981 37.9865C109.584 39.6298 111.757 40.553 114.023 40.553C116.289 40.553 118.463 39.6298 120.066 37.9865C121.855 36.1433 123.219 33.9123 124.057 31.4574C124.895 29.0026 125.186 26.3863 124.909 23.8009C124.32 24.695 123.653 25.5313 122.914 26.2991Z" fill="#FCBC04"/>
<path d="M95.894 25.5891L92.7261 28.1194C92.8373 28.248 92.9256 28.3882 93.0452 28.5109L103.301 39.0296C102.398 40.0901 101.293 40.9491 100.053 41.5534C98.8137 42.1578 97.4663 42.4947 96.0946 42.5431C94.7229 42.5916 93.356 42.3507 92.0788 41.8353C90.8016 41.3199 89.6412 40.541 88.6694 39.5468C87.1503 37.9894 86.1621 35.9706 85.852 33.7907C83.9724 35.7149 82.9148 38.3257 82.9116 41.0494C82.9084 43.7731 83.9599 46.3865 85.8349 48.3153C86.8434 49.3497 88.055 50.1523 89.3891 50.6699C90.7231 51.1874 92.1493 51.4081 93.5728 51.3171C94.9964 51.2262 96.3849 50.8259 97.6461 50.1426C98.9072 49.4593 100.012 48.5088 100.888 47.354L107.993 37.9865L95.894 25.5891Z" fill="#E59730"/>
<path d="M45.9756 29.2939C45.9763 26.5959 46.887 23.9812 48.5533 21.8936C50.2196 19.8059 52.5388 18.3738 55.1174 17.8402C54.7286 16.8357 54.5266 15.7654 54.522 14.6846C54.522 12.3598 55.4225 10.1303 57.0252 8.48642C58.628 6.84255 60.8018 5.91904 63.0685 5.91904C65.3351 5.91904 67.509 6.84255 69.1117 8.48642C70.7145 10.1303 71.6149 12.3598 71.6149 14.6846C71.6149 14.8307 71.5807 14.9768 71.5722 15.1112C72.5139 14.841 73.4859 14.6976 74.4637 14.6846C77.4859 14.6846 80.3844 15.916 82.5214 18.1078C84.6584 20.2996 85.859 23.2724 85.859 26.3721C85.8474 28.3161 85.3575 30.2256 84.4346 31.9236C85.8926 33.1089 87.0421 34.6456 87.7808 36.3969C88.5195 38.1481 88.8245 40.0596 88.6685 41.961C88.5126 43.8624 87.9006 45.6948 86.887 47.2949C85.8734 48.895 84.4897 50.2131 82.8592 51.1319C82.953 51.6387 83.0035 52.153 83.0102 52.6688C83.0102 54.9936 82.1098 57.2232 80.507 58.867C78.9042 60.5109 76.7304 61.4344 74.4637 61.4344C72.9925 61.4249 71.5491 61.0221 70.276 60.2657C69.1415 62.1238 67.368 63.4773 65.3068 64.0581C63.2456 64.639 61.0469 64.4048 59.146 63.4021C57.2451 62.3993 55.7806 60.7011 55.0424 58.6435C54.3043 56.586 54.3463 54.3192 55.1602 52.2919C53.5478 50.7197 52.4279 48.6911 51.943 46.4642C51.458 44.2373 51.6299 41.9128 52.4367 39.7863C50.5053 38.8394 48.8741 37.3521 47.731 35.4957C46.5879 33.6394 45.9794 31.4895 45.9756 29.2939Z" fill="#A1D51C"/>
<path d="M85.8526 38.0596C84.3814 38.0501 82.938 37.6472 81.6649 36.8908C80.5303 38.7489 78.7569 40.1024 76.6957 40.6833C74.6345 41.2641 72.4358 41.03 70.5349 40.0272C68.634 39.0245 67.1695 37.3262 66.4313 35.2687C65.6932 33.2111 65.7352 30.9443 66.5491 28.9171C64.9367 27.3448 63.8168 25.3162 63.3319 23.0893C62.8469 20.8624 63.0188 18.5379 63.8256 16.4115C62.2115 15.6162 60.803 14.4419 59.714 12.984C58.6251 11.526 57.8866 9.82533 57.5582 8.0199C56.1868 9.17852 55.2093 10.7536 54.7665 12.5184C54.3237 14.2832 54.4383 16.1466 55.094 17.8403C52.7542 18.3189 50.6206 19.5406 48.9957 21.3324C47.3708 23.1242 46.3369 25.395 46.0406 27.8231C45.7443 30.2512 46.2007 32.7134 47.345 34.8606C48.4893 37.0078 50.2635 38.7311 52.4161 39.7864C51.6092 41.9128 51.4374 44.2374 51.9224 46.4642C52.4073 48.6911 53.5272 50.7197 55.1396 52.292C54.3134 54.323 54.2638 56.5987 55.0005 58.6657C55.7371 60.7326 57.206 62.4389 59.1145 63.4447C61.023 64.4505 63.2309 64.6819 65.2982 64.0927C67.3656 63.5036 69.1406 62.1371 70.2696 60.2657C71.5427 61.0221 72.9861 61.425 74.4574 61.4345C76.724 61.4345 78.8979 60.5109 80.5006 58.8671C82.1034 57.2232 83.0038 54.9937 83.0038 52.6689C82.9972 52.153 82.9466 51.6388 82.8528 51.132C84.6205 50.1273 86.0946 48.6568 87.1228 46.8723C88.151 45.0879 88.696 43.0542 88.7014 40.9814C88.6864 39.864 88.5087 38.7551 88.1744 37.6914C87.421 37.9246 86.6395 38.0486 85.8526 38.0596Z" fill="#7AB92D"/>
<path d="M72.3101 51.994H72.1962C71.8222 51.9789 71.4548 51.8884 71.115 51.7277C70.7751 51.567 70.4695 51.3392 70.2155 51.0572C69.9615 50.7753 69.7642 50.4448 69.6348 50.0847C69.5054 49.7245 69.4464 49.3417 69.4613 48.9582C69.7917 40.5309 67.7122 32.1885 63.4788 24.958C63.278 24.629 63.1432 24.2622 63.0822 23.8791C63.0212 23.4961 63.0352 23.1044 63.1234 22.7269C63.2116 22.3495 63.3723 21.9938 63.596 21.6808C63.8197 21.3677 64.102 21.1035 64.4264 20.9036C64.7507 20.7036 65.1107 20.572 65.4852 20.5163C65.8598 20.4607 66.2413 20.4821 66.6077 20.5794C66.9741 20.6767 67.3179 20.8478 67.619 21.0829C67.9202 21.318 68.1726 21.6122 68.3617 21.9485C73.1722 30.1532 75.5361 39.6227 75.1618 49.189C75.1323 49.944 74.8188 50.6579 74.2871 51.1809C73.7554 51.7039 73.0468 51.9953 72.3101 51.994Z" fill="#5BA006"/>
<path d="M70.754 38.0596C70.3711 38.0605 69.992 37.981 69.6402 37.8258L56.2507 31.9821C55.9065 31.8317 55.5946 31.6132 55.3328 31.3392C55.0709 31.0651 54.8642 30.7409 54.7245 30.3849C54.5849 30.0289 54.5149 29.6482 54.5187 29.2645C54.5225 28.8808 54.5999 28.5016 54.7466 28.1486C54.8932 27.7956 55.1062 27.4757 55.3734 27.2071C55.6406 26.9386 55.9568 26.7266 56.3038 26.5833C56.6509 26.4401 57.0221 26.3683 57.3962 26.3722C57.7703 26.3761 58.14 26.4555 58.4842 26.6059L69.2698 31.3101L71.8337 25.2122C72.1337 24.5008 72.6969 23.9408 73.3994 23.6553C73.7473 23.5139 74.1189 23.4442 74.493 23.4501C74.8672 23.4561 75.2365 23.5376 75.5799 23.6899C75.9234 23.8422 76.2342 24.0624 76.4946 24.338C76.7551 24.6135 76.9601 24.9389 77.0979 25.2957C77.2357 25.6525 77.3037 26.0336 77.2979 26.4174C77.2921 26.8011 77.2127 27.1799 77.0642 27.5321L73.3607 36.2977C73.1406 36.8197 72.7766 37.2645 72.3136 37.5774C71.8506 37.8904 71.3086 38.058 70.754 38.0596Z" fill="#5BA006"/>
<path d="M72.3413 51.208C71.9299 51.2095 71.5233 51.1177 71.1505 50.9392L61.8719 46.5564C61.5215 46.4032 61.2045 46.1795 60.9399 45.8985C60.6752 45.6174 60.4682 45.2848 60.3311 44.9203C60.194 44.5558 60.1295 44.1667 60.1416 43.7762C60.1536 43.3857 60.2419 43.0016 60.4012 42.6467C60.5605 42.2918 60.7876 41.9733 61.069 41.71C61.3504 41.4466 61.6805 41.2439 62.0397 41.1137C62.3988 40.9835 62.7798 40.9285 63.1601 40.952C63.5403 40.9754 63.9121 41.0769 64.2535 41.2503L71.3755 44.6075L74.9793 39.3102C75.1897 38.9869 75.461 38.71 75.7771 38.4955C76.0932 38.2811 76.4479 38.1335 76.8203 38.0614C77.1927 37.9894 77.5754 37.9942 77.946 38.0757C78.3166 38.1573 78.6676 38.3138 78.9784 38.5362C79.2893 38.7586 79.5537 39.0424 79.7563 39.3709C79.9589 39.6994 80.0955 40.0661 80.1582 40.4495C80.2208 40.8329 80.2083 41.2252 80.1213 41.6036C80.0342 41.9819 79.8745 42.3386 79.6513 42.6528L74.6859 49.9575C74.4226 50.3446 74.0718 50.6607 73.6635 50.8784C73.2552 51.0962 72.8015 51.2093 72.3413 51.208Z" fill="#5BA006"/>
<path d="M3.23731 8.84095C3.23628 6.96953 3.81924 5.1469 4.90088 3.63977C5.98253 2.13263 7.50607 1.02009 9.24857 0.464967C10.9911 -0.0901599 12.8611 -0.0587427 14.5849 0.554626C16.3087 1.16799 17.7959 2.33111 18.8289 3.87378C20.3729 3.2164 22.0391 2.91614 23.7091 2.99437C25.3791 3.07259 27.0118 3.52738 28.4909 4.32636C29.9701 5.12534 31.2593 6.24888 32.2669 7.61703C33.2746 8.98517 33.9758 10.5643 34.3207 12.242C36.7738 11.4746 39.4105 11.6038 41.7811 12.6077C44.1516 13.6116 46.1092 15.4279 47.3199 17.7468C47.8144 17.6555 48.3158 17.6085 48.8183 17.6065C51.085 17.6065 53.2588 18.53 54.8616 20.1739C56.4644 21.8178 57.3648 24.0473 57.3648 26.3721C57.3588 28.321 56.7124 30.2109 55.5302 31.7367C57.1069 34.216 57.6982 37.2204 57.1827 40.133C56.6673 43.0455 55.084 45.6451 52.7583 47.3978C53.8932 48.9089 54.511 50.7614 54.516 52.6689C54.5215 54.7823 53.7804 56.8262 52.4299 58.4224C51.0793 60.0186 49.2106 61.0589 47.1698 61.3509C45.1289 61.6428 43.0541 61.1666 41.3292 60.0104C39.6043 58.8541 38.3462 57.0962 37.7877 55.0619C35.8015 55.7082 33.6775 55.765 31.6611 55.2257C29.6447 54.6865 27.8181 53.5731 26.3925 52.0144C24.8375 52.6646 23.13 52.8294 21.4841 52.4881C19.8381 52.1469 18.3271 51.3148 17.1405 50.0962C15.9539 48.8776 15.1445 47.3267 14.8139 45.6382C14.4833 43.9496 14.6462 42.1985 15.2821 40.6045C13.8058 39.1816 12.7387 37.3703 12.1972 35.3682C11.6557 33.366 11.6605 31.2497 12.2111 29.2502C12.0686 29.2589 11.9262 29.294 11.7838 29.294C10.1311 29.3008 8.51227 28.814 7.12482 27.893C5.73736 26.9721 4.6413 25.6568 3.9704 24.1077C3.2995 22.5586 3.08278 20.8427 3.34667 19.1694C3.61057 17.4961 4.34368 15.9378 5.45653 14.6847C4.0343 13.0874 3.24312 11.0041 3.23731 8.84095Z" fill="#C4F236"/>
<path d="M53.7677 46.5347C52.7035 46.8303 51.5929 46.9076 50.4995 46.7621C49.4062 46.6166 48.3516 46.2513 47.3962 45.6869C46.4408 45.1226 45.6033 44.3704 44.9319 43.4735C44.2605 42.5766 43.7683 41.5526 43.4835 40.4602C41.4972 41.1065 39.3732 41.1633 37.3568 40.624C35.3404 40.0847 33.5139 38.9714 32.0882 37.4127C30.5333 38.0629 28.8257 38.2277 27.1798 37.8864C25.5339 37.5452 24.0228 36.7131 22.8362 35.4945C21.6496 34.2759 20.8402 32.725 20.5096 31.0364C20.179 29.3479 20.3419 27.5968 20.9778 26.0028C19.5015 24.5799 18.4345 22.7686 17.8929 20.7665C17.3514 18.7643 17.3562 16.648 17.9068 14.6484C17.7644 14.6514 17.6219 14.6864 17.4795 14.6864C15.8342 14.6942 14.2221 14.2125 12.8383 13.2996C11.4546 12.3868 10.3587 11.0819 9.68332 9.54321C9.00796 8.00448 8.78216 6.29789 9.03327 4.63021C9.28439 2.96253 10.0016 1.40532 11.0981 0.147247C9.5102 0.26557 7.98683 0.840101 6.70243 1.80507C5.41804 2.77004 4.42453 4.08645 3.83564 5.6036C3.24675 7.12074 3.08628 8.7773 3.3726 10.3836C3.65893 11.9899 4.38047 13.4811 5.45463 14.6864C4.34178 15.9396 3.60867 17.4979 3.34477 19.1712C3.08087 20.8445 3.2976 22.5604 3.9685 24.1095C4.6394 25.6585 5.73546 26.9738 7.12292 27.8948C8.51037 28.8157 10.1292 29.3025 11.7819 29.2957C11.9243 29.2957 12.0667 29.2607 12.1978 29.2519C11.6472 31.2515 11.6424 33.3677 12.1839 35.3699C12.7254 37.3721 13.7925 39.1834 15.2688 40.6063C14.6329 42.2002 14.47 43.9514 14.8006 45.6399C15.1312 47.3285 15.9406 48.8793 17.1272 50.0979C18.3138 51.3165 19.8249 52.1487 21.4708 52.4899C23.1167 52.8311 24.8242 52.6663 26.3792 52.0161C27.8048 53.5749 29.6314 54.6882 31.6478 55.2275C33.6642 55.7667 35.7882 55.7099 37.7744 55.0636C38.1124 56.3032 38.7131 57.4508 39.5337 58.4246C40.3543 59.3984 41.3744 60.1743 42.5213 60.6968C43.6681 61.2193 44.9133 61.4756 46.1679 61.4473C47.4225 61.4189 48.6556 61.1068 49.7789 60.533C50.9022 59.9592 51.8881 59.1381 52.6661 58.1282C53.4441 57.1183 53.995 55.9446 54.2795 54.6911C54.5639 53.4375 54.5749 52.1349 54.3116 50.8765C54.0483 49.6181 53.5172 48.4348 52.7564 47.4113C53.1083 47.1376 53.4459 46.845 53.7677 46.5347Z" fill="#A1D51C"/>
<path d="M44.3481 51.994C43.7603 51.9941 43.1869 51.8076 42.7064 51.4603C42.226 51.113 41.8621 50.6217 41.6646 50.0538C36.7169 35.7933 26.5689 24.057 13.3559 17.3144C12.6797 16.968 12.1653 16.3603 11.926 15.6249C11.8074 15.2608 11.76 14.8763 11.7864 14.4934C11.8127 14.1105 11.9124 13.7367 12.0796 13.3933C12.2468 13.0498 12.4784 12.7436 12.761 12.4919C13.0436 12.2403 13.3718 12.0482 13.7268 11.9267C14.4438 11.6812 15.2265 11.7379 15.9027 12.0843C30.4315 19.4996 41.5894 32.4059 47.0289 48.0874C47.1827 48.5283 47.231 49.0007 47.1697 49.4647C47.1083 49.9287 46.9391 50.3709 46.6764 50.7538C46.4136 51.1367 46.0649 51.4493 45.6597 51.6651C45.2545 51.8809 44.8047 51.9937 44.3481 51.994Z" fill="#7AB92D"/>
<path d="M34.5707 35.1377H23.1755C22.4199 35.1377 21.6953 34.8299 21.1611 34.2819C20.6268 33.7339 20.3267 32.9908 20.3267 32.2158C20.3267 31.4409 20.6268 30.6977 21.1611 30.1498C21.6953 29.6018 22.4199 29.294 23.1755 29.294H32.5167L34.7189 22.5269C34.9576 21.7908 35.4717 21.182 36.1481 20.8346C36.8245 20.4872 37.6077 20.4296 38.3255 20.6745C39.0433 20.9193 39.6368 21.4466 39.9755 22.1404C40.3142 22.8341 40.3704 23.6374 40.1316 24.3735L37.2828 33.1391C37.0933 33.7226 36.7292 34.2299 36.2422 34.5887C35.7553 34.9476 35.1704 35.1397 34.5707 35.1377Z" fill="#7AB92D"/>
<path d="M17.4784 26.3721C16.8358 26.3734 16.2117 26.1518 15.7074 25.7435C15.2032 25.3351 14.8483 24.7638 14.7004 24.1225C14.5526 23.4812 14.6205 22.8074 14.8931 22.2106C15.1657 21.6139 15.627 21.1291 16.2021 20.8352L20.3272 18.7227V11.7628C20.3272 10.9879 20.6273 10.2447 21.1616 9.69673C21.6958 9.14878 22.4204 8.84094 23.176 8.84094C23.9315 8.84094 24.6561 9.14878 25.1904 9.69673C25.7247 10.2447 26.0248 10.9879 26.0248 11.7628V20.5284C26.025 21.0714 25.8778 21.6037 25.5995 22.0656C25.3212 22.5275 24.923 22.9008 24.4494 23.1435L18.7518 26.0653C18.3563 26.2675 17.9203 26.3725 17.4784 26.3721Z" fill="#7AB92D"/>
<path d="M43.1177 48.3912C42.99 48.3911 42.8625 48.3823 42.7359 48.3649L31.3407 46.7988C30.6009 46.6852 29.9343 46.2778 29.4849 45.6644C29.0355 45.051 28.8394 44.2809 28.9389 43.5205C29.0384 42.7601 29.4255 42.0703 30.0167 41.6001C30.6079 41.13 31.3556 40.9172 32.0985 41.0077L40.7959 42.2027L43.1604 28.7621C43.2245 28.3822 43.3612 28.019 43.5628 27.6935C43.7644 27.368 44.0268 27.0866 44.3349 26.8656C44.643 26.6446 44.9907 26.4883 45.3579 26.4058C45.7252 26.3233 46.1047 26.3161 46.4747 26.3848C46.8447 26.4534 47.1977 26.5965 47.5135 26.8057C47.8293 27.015 48.1016 27.2863 48.3147 27.604C48.5278 27.9217 48.6774 28.2795 48.755 28.6568C48.8327 29.0341 48.8367 29.4234 48.7669 29.8023L45.9181 45.9778C45.8017 46.6532 45.4574 47.2651 44.9454 47.7063C44.4334 48.1476 43.7864 48.39 43.1177 48.3912Z" fill="#7AB92D"/>
<path d="M11.7822 49.747H142.828V55.5907C142.828 67.9895 138.025 79.8805 129.477 88.6478C120.929 97.4151 109.336 102.341 97.2467 102.341H57.3633C45.2744 102.341 33.6807 97.4151 25.1326 88.6478C16.5845 79.8805 11.7822 67.9895 11.7822 55.5907V49.747Z" fill="#84D2F4"/>
<path d="M137.751 74.0277C135.298 70.3824 132.067 67.3582 128.304 65.1847C124.541 63.0111 120.345 61.7453 116.034 61.4834C111.723 61.2215 107.41 61.9703 103.423 63.673C99.4367 65.3757 95.8805 67.9876 93.0247 71.3104C92.2544 70.0754 91.1938 69.059 89.9403 68.3544C88.6868 67.6498 87.2808 67.2797 85.8514 67.2782C85.6776 67.2782 85.5153 67.3191 85.3443 67.3308C84.7455 65.5348 83.5921 63.9879 82.059 62.9247C80.5258 61.8615 78.6966 61.34 76.8484 61.4391C75.0002 61.5382 73.234 62.2526 71.8173 63.4739C70.4006 64.6953 69.4108 66.3571 68.9978 68.2073C68.2533 67.7161 67.4074 67.4095 66.5273 67.312C65.6471 67.2145 64.7569 67.3286 63.9273 67.6454C63.0976 67.9622 62.3514 68.473 61.7477 69.1371C61.144 69.8012 60.6996 70.6005 60.4495 71.4715C60.1995 72.3425 60.1508 73.2613 60.3073 74.155C60.4638 75.0487 60.8212 75.8927 61.3512 76.62C61.8811 77.3473 62.569 77.938 63.3603 78.3452C64.1515 78.7523 65.0244 78.9648 65.9097 78.9656C66.0949 78.9656 66.2687 78.9276 66.451 78.9101C65.7473 80.7647 65.729 82.8192 66.3997 84.6866C56.7252 84.1709 47.4628 80.5053 39.9581 74.2221C32.4534 67.9389 27.0972 59.3654 24.6674 49.747H11.7822V55.5907C11.7822 67.9895 16.5845 79.8805 25.1326 88.6478C33.6807 97.4151 45.2744 102.341 57.3633 102.341H97.2467C106.519 102.335 115.569 99.428 123.188 94.0069C130.806 88.5858 136.631 80.9092 139.882 72.0028C139.178 72.6836 138.498 73.3907 137.751 74.0277Z" fill="#57B7EB"/>
<path d="M100.096 76.0437C100.096 73.7189 99.1957 71.4894 97.5929 69.8455C95.9902 68.2017 93.8163 67.2781 91.5497 67.2781C91.3759 67.2781 91.2135 67.319 91.0426 67.3307C90.4438 65.5347 89.2904 63.9879 87.7572 62.9247C86.2241 61.8615 84.3948 61.3399 82.5467 61.439C80.6985 61.5381 78.9322 62.2525 77.5156 63.4739C76.0989 64.6952 75.109 66.357 74.6961 68.2073C73.9516 67.716 73.1057 67.4095 72.2255 67.312C71.3454 67.2144 70.4552 67.3286 69.6255 67.6454C68.7959 67.9622 68.0496 68.4729 67.446 69.137C66.8423 69.8012 66.3978 70.6005 66.1478 71.4715C65.8978 72.3425 65.8491 73.2613 66.0056 74.155C66.1621 75.0486 66.5195 75.8926 67.0494 76.6199C67.5794 77.3473 68.2672 77.938 69.0585 78.3451C69.8498 78.7523 70.7227 78.9647 71.608 78.9656C71.7932 78.9656 71.9669 78.9276 72.1493 78.9101C71.3991 80.9242 71.4297 83.1565 72.2347 85.1483C70.9832 85.4846 69.8228 86.1087 68.8414 86.9733C67.86 87.8379 67.0833 88.9203 66.5703 90.1385C66.0573 91.3566 65.8214 92.6786 65.8805 94.0041C65.9395 95.3296 66.292 96.624 66.9112 97.7891C67.5304 98.9542 68.4001 99.9594 69.4543 100.729C70.5085 101.498 71.7196 102.011 72.9958 102.229C74.272 102.446 75.5798 102.363 76.8201 101.986C78.0604 101.608 79.2007 100.946 80.1544 100.05C81.2162 101.045 82.5077 101.747 83.9072 102.089C85.3067 102.431 86.7681 102.402 88.1534 102.004C89.5388 101.606 90.8025 100.852 91.8254 99.8149C92.8482 98.7773 93.5965 97.4895 93.9997 96.0731C95.3781 95.6584 96.631 94.891 97.6406 93.843C98.6502 92.795 99.3834 91.5009 99.7711 90.0823C100.159 88.6637 100.188 87.1672 99.8571 85.7337C99.5257 84.3001 98.8443 82.9766 97.8769 81.8874C99.2991 80.2902 100.09 78.2068 100.096 76.0437Z" fill="#C4F236"/>
<path d="M96.2189 68.7128C95.534 69.1805 94.7864 69.5437 93.9997 69.7909C93.5965 71.2074 92.8482 72.4951 91.8254 73.5327C90.8025 74.5703 89.5388 75.3236 88.1534 75.7215C86.7681 76.1194 85.3067 76.1488 83.9072 75.807C82.5077 75.4651 81.2162 74.7632 80.1544 73.7676C79.1378 74.719 77.9108 75.4027 76.5793 75.7597C75.2478 76.1167 73.8516 76.1363 72.511 75.8169C71.1705 75.4974 69.9257 74.8485 68.884 73.926C67.8423 73.0035 67.0349 71.8351 66.5314 70.5214C66.1284 71.3263 65.9156 72.2171 65.9104 73.1218C65.9104 74.6717 66.5106 76.1581 67.5791 77.254C68.6477 78.3499 70.0969 78.9656 71.608 78.9656C71.7932 78.9656 71.9669 78.9276 72.1493 78.91C71.3991 80.9242 71.4297 83.1565 72.2347 85.1482C70.9832 85.4846 69.8228 86.1087 68.8414 86.9733C67.86 87.8379 67.0833 88.9203 66.5703 90.1384C66.0573 91.3566 65.8214 92.6785 65.8805 94.0041C65.9395 95.3296 66.292 96.6239 66.9112 97.789C67.5304 98.9541 68.4001 99.9593 69.4543 100.729C70.5085 101.498 71.7196 102.011 72.9958 102.228C74.272 102.446 75.5798 102.363 76.8201 101.986C78.0604 101.608 79.2007 100.946 80.1544 100.05C81.2162 101.045 82.5077 101.747 83.9072 102.089C85.3067 102.431 86.7681 102.402 88.1534 102.004C89.5388 101.606 90.8025 100.852 91.8254 99.8148C92.8482 98.7772 93.5965 97.4895 93.9997 96.073C95.3781 95.6584 96.631 94.891 97.6406 93.843C98.6502 92.795 99.3834 91.5008 99.7711 90.0822C100.159 88.6636 100.188 87.1672 99.8571 85.7336C99.5257 84.3001 98.8443 82.9765 97.8769 81.8874C98.7082 80.9538 99.3312 79.8455 99.7024 78.6398C100.074 77.434 100.184 76.1598 100.026 74.9058C99.8686 73.6518 99.4462 72.4481 98.7886 71.3786C98.1311 70.309 97.2541 69.3993 96.2189 68.7128Z" fill="#A1D51C"/>
<path d="M124.724 116.95C140.458 116.95 153.213 103.868 153.213 87.7313C153.213 71.5943 140.458 58.5126 124.724 58.5126C108.991 58.5126 96.2363 71.5943 96.2363 87.7313C96.2363 103.868 108.991 116.95 124.724 116.95Z" fill="#F89C8D"/>
<path d="M138.969 93.575C133.114 93.5724 127.403 91.7198 122.611 88.2693C117.819 84.8187 114.181 79.9378 112.19 74.2907L119.027 67.2782L122.967 86.5333L133.271 73.1219L139.032 87.7955L149.971 74.2235C146.8 67.9512 141.522 63.0685 135.113 60.478C128.704 57.8875 121.597 57.7643 115.106 60.1313C108.615 62.4983 103.18 67.1953 99.8035 73.3541C96.4275 79.5129 95.3395 86.717 96.7407 93.6348C98.1418 100.553 101.937 106.716 107.426 110.986C112.914 115.256 119.724 117.344 126.597 116.864C133.47 116.383 139.941 113.367 144.814 108.373C149.687 103.378 152.632 96.7435 153.105 89.6947C148.805 92.2353 143.931 93.5733 138.969 93.575Z" fill="#F8664F"/>
<path d="M157.246 38.0595C152.476 38.0606 147.774 39.2294 143.532 41.469C139.29 43.7086 135.631 46.9543 132.858 50.9362L127.573 58.5126L136.12 61.4345C139.644 57.8193 143.959 55.1195 148.706 53.5593C153.453 51.9991 158.495 51.6237 163.411 52.4643L164.608 52.6689L165.462 48.327C165.705 47.0809 165.676 45.795 165.375 44.5621C165.075 43.3293 164.511 42.1802 163.725 41.1979C162.939 40.2156 161.95 39.4245 160.83 38.8818C159.709 38.3391 158.486 38.0582 157.246 38.0595Z" fill="#A1D51C"/>
<path d="M153.213 46.8252C148.231 46.8554 143.267 46.2099 138.45 44.9055C136.328 46.6459 134.446 48.6748 132.858 50.9362L127.573 58.5126L136.12 61.4345C139.644 57.8194 143.959 55.1195 148.706 53.5593C153.453 51.9991 158.495 51.6237 163.411 52.4643L164.608 52.6689L165.462 48.327C165.629 47.4019 165.643 46.4549 165.505 45.5249C161.464 46.4016 157.343 46.8374 153.213 46.8252Z" fill="#7AB92D"/>
<path d="M113.265 51.2898L111.294 53.8172C110.183 55.2425 109.46 56.9445 109.199 58.7498C108.938 60.555 109.149 62.3989 109.809 64.0934L113.331 73.1219L121.877 64.3563L125.817 83.6114L136.121 70.2001L141.881 84.8736L153.015 71.0766C153.967 69.8947 154.65 68.5098 155.015 67.0227C155.38 65.5357 155.417 63.9839 155.123 62.4805C154.611 59.8535 153.123 57.5337 150.973 56.0118C148.824 54.4899 146.181 53.8852 143.605 54.3256L140.044 54.9333C137.523 55.3656 134.937 54.7962 132.811 53.3409L126.703 49.1626C124.609 47.7297 122.068 47.1533 119.581 47.547C117.093 47.9408 114.84 49.2761 113.265 51.2898Z" fill="#A1D51C"/>
<path d="M147.516 67.2781C133.355 67.2781 121.877 58.7755 121.877 48.286C121.877 48.0172 121.917 47.7542 121.931 47.4854C120.294 47.3415 118.647 47.6127 117.136 48.2751C115.625 48.9374 114.295 49.9707 113.265 51.2838L111.294 53.8112C110.183 55.2366 109.46 56.9386 109.199 58.7438C108.938 60.5491 109.149 62.3929 109.809 64.0874L113.331 73.1218L121.877 64.3562L125.817 83.6113L136.121 70.2L141.881 84.8736L153.015 71.0765C154.074 69.7366 154.788 68.1451 155.091 66.4483C152.603 67.0074 150.063 67.2857 147.516 67.2781Z" fill="#7AB92D"/>
<path d="M27.4516 97.166L30.3004 102.227L11.6805 115.959C11.0962 116.391 10.4302 116.693 9.72545 116.844C9.02066 116.996 8.2927 116.994 7.58848 116.84C6.88425 116.686 6.21937 116.382 5.63667 115.948C5.05396 115.514 4.56635 114.959 4.20525 114.32C3.84494 113.68 3.61939 112.97 3.54313 112.235C3.46687 111.5 3.5416 110.757 3.7625 110.054C3.9834 109.351 4.34557 108.702 4.82566 108.151C5.30575 107.6 5.89309 107.159 6.54983 106.855L27.4516 97.166Z" fill="#A1D51C"/>
<path d="M27.451 97.166L6.54929 106.84C6.13809 107.035 5.75472 107.287 5.40976 107.588C5.62477 107.608 5.84081 107.613 6.05644 107.603L16.5401 106.528L11.68 110.11C11.1191 110.524 10.4822 110.818 9.80773 110.974C9.13325 111.129 8.43507 111.143 7.75516 111.015C7.07525 110.887 6.42766 110.619 5.85129 110.227C5.27493 109.836 4.78171 109.329 4.40128 108.737C3.7056 109.762 3.38846 111.008 3.50662 112.251C3.62479 113.494 4.17055 114.654 5.04619 115.522C5.92184 116.39 7.0702 116.91 8.28569 116.989C9.50117 117.069 10.7044 116.701 11.68 115.954L30.2999 102.221L27.451 97.166Z" fill="#7AB92D"/>
<path d="M27.4516 101.671L30.3004 96.6108L11.6805 82.878C11.0957 82.4466 10.4292 82.1457 9.72408 81.9947C9.01893 81.8437 8.29074 81.8459 7.58646 82.0011C6.88218 82.1564 6.21743 82.4613 5.63506 82.8961C5.05269 83.331 4.56562 83.8862 4.20525 84.5259C3.84494 85.1659 3.61939 85.8761 3.54313 86.6109C3.46687 87.3458 3.5416 88.0888 3.7625 88.7922C3.9834 89.4956 4.34557 90.1436 4.82566 90.6947C5.30575 91.2457 5.89309 91.6874 6.54983 91.9913L27.4516 101.671Z" fill="#C4F236"/>
<path d="M20.5054 89.3908C19.6022 90.2358 18.4777 90.7914 17.2704 90.9892C16.0632 91.187 14.8259 91.0184 13.711 90.504L3.69453 85.867C3.38789 87.0701 3.50559 88.3457 4.02685 89.4684C4.54811 90.5911 5.43941 91.4888 6.54335 92.003L27.4508 101.671L30.2996 96.6107L20.5054 89.3908Z" fill="#A1D51C"/>
<path d="M28.8763 96.4968V102.341L6.05733 104.678C5.34075 104.751 4.61713 104.67 3.93306 104.439C3.24899 104.209 2.61965 103.833 2.08557 103.338C1.5515 102.842 1.12454 102.238 0.83219 101.563C0.539842 100.888 0.388592 100.157 0.388184 99.4187C0.388592 98.6801 0.539842 97.9498 0.83219 97.2747C1.12454 96.5997 1.5515 95.995 2.08557 95.4996C2.61965 95.0041 3.24899 94.6288 3.93306 94.398C4.61713 94.1672 5.34075 94.0859 6.05733 94.1593L28.8763 96.4968Z" fill="#C4F236"/>
<path d="M28.8758 96.4969L18.62 95.445C17.2266 96.9359 15.3636 97.8727 13.3611 98.0893L6.05676 98.8344C5.12554 98.9282 4.18701 98.7601 3.34185 98.3483C2.49668 97.9365 1.77677 97.2965 1.25935 96.4969C0.709841 97.3277 0.403638 98.3024 0.376912 99.3059C0.350187 100.309 0.604055 101.3 1.10853 102.16C1.613 103.02 2.34701 103.715 3.22383 104.161C4.10066 104.607 5.08367 104.787 6.05676 104.678L28.8758 102.341V96.4969Z" fill="#A1D51C"/>
<path d="M20.3296 99.4187C20.3295 101.656 20.78 103.868 21.653 105.918C22.526 107.968 23.8026 109.81 25.4028 111.33C27.0029 112.85 28.892 114.015 30.9516 114.75C33.0111 115.486 35.1967 115.777 37.3712 115.606L83.0377 112.003C86.1287 111.759 89.0159 110.327 91.1222 107.994C93.2284 105.661 94.3986 102.598 94.3988 99.4187C94.3986 96.239 93.2284 93.1766 91.1222 90.8435C89.0159 88.5104 86.1287 87.0786 83.0377 86.8342L37.3712 83.2316C35.1967 83.0601 33.0111 83.3513 30.9516 84.087C28.892 84.8228 27.0029 85.9871 25.4028 87.507C23.8026 89.0269 22.526 90.8695 21.653 92.9193C20.78 94.9691 20.3295 97.1818 20.3296 99.4187Z" fill="#F89C8D"/>
<path d="M89.1431 104.582L43.5421 100.222C39.7465 99.8589 36.2061 98.1033 33.5711 95.2778C30.9361 92.4524 29.3835 88.7468 29.1983 84.8415C25.8935 86.5024 23.2563 89.2926 21.7403 92.7321C20.2243 96.1716 19.9242 100.045 20.8918 103.687C21.8593 107.329 24.0339 110.511 27.0416 112.686C30.0493 114.862 33.7021 115.894 37.3716 115.606L83.0381 112.003C85.316 111.822 87.4998 110.994 89.3449 109.612C91.19 108.23 92.6234 106.349 93.4847 104.178C92.0726 104.578 90.6022 104.715 89.1431 104.582Z" fill="#F8664F"/>
<path d="M37.4224 83.2316L43.12 83.6699V93.575C43.12 94.3499 42.8199 95.0931 42.2856 95.6411C41.7513 96.189 41.0267 96.4969 40.2712 96.4969C39.5156 96.4969 38.791 96.189 38.2568 95.6411C37.7225 95.0931 37.4224 94.3499 37.4224 93.575V83.2316Z" fill="#CC5144"/>
<path d="M57.3641 102.341V114.028L51.6665 114.466V102.341C51.6665 101.566 51.9666 100.822 52.5009 100.274C53.0352 99.7265 53.7598 99.4187 54.5153 99.4187C55.2709 99.4187 55.9955 99.7265 56.5297 100.274C57.064 100.822 57.3641 101.566 57.3641 102.341Z" fill="#CC5144"/>
<path d="M60.2119 85.0431L65.9095 85.4814V96.4968C65.9095 97.2717 65.6094 98.0149 65.0751 98.5629C64.5409 99.1108 63.8163 99.4187 63.0607 99.4187C62.3052 99.4187 61.5806 99.1108 61.0463 98.5629C60.5121 98.0149 60.2119 97.2717 60.2119 96.4968V85.0431Z" fill="#CC5144"/>
<path d="M71.6074 85.9198L77.3051 86.3873V93.575C77.3051 94.35 77.0049 95.0932 76.4707 95.6411C75.9364 96.1891 75.2118 96.4969 74.4562 96.4969C73.7007 96.4969 72.9761 96.1891 72.4418 95.6411C71.9076 95.0932 71.6074 94.35 71.6074 93.575V85.9198Z" fill="#CC5144"/>
<path d="M85.8529 102.341V111.428C84.9403 111.742 83.9928 111.939 83.0326 112.012L80.1553 112.246V102.341C80.1553 101.566 80.4554 100.822 80.9897 100.274C81.5239 99.7265 82.2485 99.4187 83.0041 99.4187C83.7596 99.4187 84.4843 99.7265 85.0185 100.274C85.5528 100.822 85.8529 101.566 85.8529 102.341Z" fill="#CC5144"/>
<path d="M65.9095 85.4814V96.4968C65.9095 97.2717 65.6094 98.0149 65.0751 98.5629C64.5409 99.1108 63.8163 99.4187 63.0607 99.4187C62.3052 99.4187 61.5806 99.1108 61.0463 98.5629C60.5121 98.0149 60.2119 97.2717 60.2119 96.4968V85.0431L65.9095 85.4814Z" fill="#CC5144"/>
<path d="M43.12 83.6699V93.575C43.12 94.3499 42.8199 95.0931 42.2856 95.6411C41.7513 96.189 41.0267 96.4969 40.2712 96.4969C39.5156 96.4969 38.791 96.189 38.2568 95.6411C37.7225 95.0931 37.4224 94.3499 37.4224 93.575V83.2316L43.12 83.6699Z" fill="#CC5144"/>
<path d="M85.8529 102.341V111.428C84.9403 111.742 83.9928 111.939 83.0326 112.012L80.1553 112.246V102.341C80.1553 101.566 80.4554 100.822 80.9897 100.274C81.5239 99.7265 82.2485 99.4187 83.0041 99.4187C83.7596 99.4187 84.4843 99.7265 85.0185 100.274C85.5528 100.822 85.8529 101.566 85.8529 102.341Z" fill="#CC5144"/>
<path d="M57.3641 102.341V114.028L51.6665 114.466V102.341C51.6665 101.566 51.9666 100.822 52.5009 100.274C53.0352 99.7265 53.7598 99.4187 54.5153 99.4187C55.2709 99.4187 55.9955 99.7265 56.5297 100.274C57.064 100.822 57.3641 101.566 57.3641 102.341Z" fill="#CC5144"/>
<path d="M77.3051 86.3873V93.575C77.3051 94.35 77.0049 95.0932 76.4707 95.6411C75.9364 96.1891 75.2118 96.4969 74.4562 96.4969C73.7007 96.4969 72.9761 96.1891 72.4418 95.6411C71.9076 95.0932 71.6074 94.35 71.6074 93.575V85.9198L77.3051 86.3873Z" fill="#CC5144"/>
</svg>
