<svg width="79" height="113" viewBox="0 0 79 113" fill="none" xmlns="http://www.w3.org/2000/svg">
<path d="M78.5689 96.5706V113H3.77592V98.1353L41.6418 57.2965C46.1273 52.3937 49.4132 47.9082 51.4995 43.84C53.5857 39.7718 54.6289 35.7557 54.6289 31.7918C54.6289 26.6804 53.1163 22.8208 50.0912 20.2129C47.1704 17.6051 42.9457 16.3012 37.4171 16.3012C27.6116 16.3012 17.5453 20.1608 7.21827 27.88L0.490034 13.1718C4.87121 9.20783 10.5042 6.07842 17.3889 3.78352C24.2736 1.38431 31.2104 0.184698 38.1994 0.184698C49.361 0.184698 58.1755 2.94901 64.643 8.47764C71.2147 13.9019 74.5006 21.2561 74.5006 30.54C74.5006 36.9031 73.0924 42.9012 70.2759 48.5341C67.5638 54.1671 62.974 60.478 56.5065 67.4671L29.1242 96.5706H78.5689Z" fill="#606266"/>
</svg>
