<svg width="79" height="115" viewBox="0 0 79 115" fill="none" xmlns="http://www.w3.org/2000/svg">
<path d="M58.4864 55.7318C65.0582 57.5051 70.0653 60.7388 73.5076 65.4329C77.0543 70.1271 78.8276 75.9165 78.8276 82.8012C78.8276 92.5024 75.2288 100.169 68.0311 105.802C60.9378 111.435 51.341 114.252 39.2406 114.252C31.73 114.252 24.4802 113.104 17.4911 110.809C10.6064 108.515 4.92134 105.333 0.435849 101.265L7.32056 86.5565C17.2304 94.2757 27.6096 98.1353 38.4582 98.1353C45.5515 98.1353 50.8194 96.7271 54.2617 93.9106C57.8084 91.0941 59.5817 86.8173 59.5817 81.08C59.5817 75.4471 57.8084 71.3267 54.2617 68.7188C50.7151 66.0067 45.2386 64.6506 37.8323 64.6506H23.1241V48.5341H35.1723C49.5676 48.5341 56.7653 43.0576 56.7653 32.1047C56.7653 26.9933 55.2006 23.0816 52.0711 20.3694C48.9417 17.6572 44.5606 16.3012 38.9276 16.3012C28.9135 16.3012 18.8994 20.1608 8.88526 27.88L2.15703 13.1718C6.64252 9.20783 12.2755 6.07842 19.0559 3.78352C25.9406 1.38431 32.9817 0.184698 40.1794 0.184698C51.1323 0.184698 59.8425 2.89685 66.31 8.32117C72.8817 13.6412 76.1676 20.7867 76.1676 29.7576C76.0633 35.9122 74.4464 41.2843 71.317 45.8741C68.2919 50.3596 64.0151 53.6455 58.4864 55.7318Z" fill="#606266"/>
</svg>
