<svg width="138" height="144" viewBox="0 0 138 144" fill="none" xmlns="http://www.w3.org/2000/svg">
<g filter="url(#filter0_d)">
<path d="M112.694 22.3494H98.8506C98.8506 22.3494 96.0201 29.1078 96.0201 30.7257L95.9209 85.5251C95.9209 87.1431 97.2326 88.4548 98.8506 88.4548H112.694C114.312 88.4548 115.623 87.1431 115.623 85.5251L115.723 30.7257C115.723 29.1078 112.694 22.3494 112.694 22.3494Z" fill="#FFD60D"/>
<path d="M105.772 22.3494V88.4548H112.694C114.312 88.4548 115.623 87.1431 115.623 85.5251L115.723 30.7257C115.723 29.1078 112.694 22.3494 112.694 22.3494H105.772Z" fill="#FFB92C"/>
<path d="M87.1863 11H25.207C23.5891 11 22.2773 12.3117 22.2773 13.9297V108.07C22.2773 109.688 23.5891 111 25.207 111H87.1863C88.8043 111 90.116 109.688 90.116 108.07V13.9297C90.116 12.3117 88.8045 11 87.1863 11Z" fill="#EAF4FF"/>
<path d="M87.1864 11H56.1967V111H87.1864C88.8043 111 90.1161 109.688 90.1161 108.07V13.9297C90.1161 12.3117 88.8045 11 87.1864 11Z" fill="#CDE7FC"/>
<path d="M45.1164 52.2109H33.3578C31.7398 52.2109 30.4281 53.5227 30.4281 55.1406V66.8594C30.4281 68.4773 31.7398 69.7891 33.3578 69.7891H45.1166C46.7346 69.7891 48.0463 68.4773 48.0463 66.8594V55.1406C48.0461 53.5227 46.7344 52.2109 45.1164 52.2109Z" fill="#74A3C8"/>
<path d="M79.1261 52.2109H67.1869C65.5689 52.2109 64.2572 53.5227 64.2572 55.1406C64.2572 56.7586 65.5689 58.0703 67.1869 58.0703H79.1261C80.7441 58.0703 82.0558 56.7586 82.0558 55.1406C82.0558 53.5227 80.7441 52.2109 79.1261 52.2109Z" fill="#2A495E"/>
<path d="M79.1261 63.9297H67.1869C65.5689 63.9297 64.2572 65.2414 64.2572 66.8594C64.2572 68.4773 65.5689 69.7891 67.1869 69.7891H79.1261C80.7441 69.7891 82.0558 68.4773 82.0558 66.8594C82.0558 65.2414 80.7441 63.9297 79.1261 63.9297Z" fill="#2A495E"/>
<path d="M67.1867 33.6555H79.126C80.7439 33.6555 82.0556 32.3438 82.0556 30.7258C82.0556 29.1079 80.7439 27.7961 79.126 27.7961H67.1867C65.5687 27.7961 64.257 29.1079 64.257 30.7258C64.257 32.3438 65.5687 33.6555 67.1867 33.6555Z" fill="#2A495E"/>
<path d="M79.1261 39.5149H67.1869C65.5689 39.5149 64.2572 40.8266 64.2572 42.4446C64.2572 44.0625 65.5689 45.3743 67.1869 45.3743H79.1261C80.7441 45.3743 82.0558 44.0625 82.0558 42.4446C82.0558 40.8266 80.7441 39.5149 79.1261 39.5149Z" fill="#2A495E"/>
<path d="M79.1261 76.625H67.1869C65.5689 76.625 64.2572 77.9367 64.2572 79.5547C64.2572 81.1727 65.5689 82.4844 67.1869 82.4844H79.1261C80.7441 82.4844 82.0558 81.1727 82.0558 79.5547C82.0558 77.9367 80.7441 76.625 79.1261 76.625Z" fill="#2A495E"/>
<path d="M79.1261 88.3438H67.1869C65.5689 88.3438 64.2572 89.6555 64.2572 91.2734C64.2572 92.8914 65.5689 94.2031 67.1869 94.2031H79.1261C80.7441 94.2031 82.0558 92.8914 82.0558 91.2734C82.0558 89.6555 80.7441 88.3438 79.1261 88.3438Z" fill="#2A495E"/>
<path d="M45.1164 76.603H33.3578C31.7398 76.603 30.4281 77.9147 30.4281 79.5327V91.2514C30.4281 92.8694 31.7398 94.1811 33.3578 94.1811H45.1166C46.7346 94.1811 48.0463 92.8694 48.0463 91.2514V79.5327C48.0461 77.9147 46.7344 76.603 45.1164 76.603Z" fill="#74A3C8"/>
<path d="M37.4052 42.2512C36.6554 42.2512 35.9058 41.9653 35.3337 41.393L29.8652 35.9245C28.721 34.7805 28.721 32.9255 29.8652 31.7813C31.0091 30.6374 32.8642 30.6374 34.0083 31.7813L37.4054 35.1784L44.4658 28.1182C45.6099 26.9743 47.4646 26.9739 48.6089 28.1182C49.7529 29.2622 49.7529 31.1173 48.6089 32.2614L39.4769 41.3932C38.9048 41.9651 38.155 42.2512 37.4052 42.2512Z" fill="#90E36A"/>
<path d="M95.9209 85.5252V93.9184C95.9209 94.6047 96.1617 95.269 96.6014 95.7957L102.843 103.273V108.07C102.843 109.688 104.154 111 105.772 111C107.39 111 108.702 109.688 108.702 108.07V103.273L114.943 95.7957C115.383 95.269 115.623 94.6045 115.623 93.9184V85.5252H95.9209Z" fill="#FFB92C"/>
<path d="M105.772 111C107.39 111 108.702 109.688 108.702 108.07V103.273L114.943 95.7957C115.382 95.269 115.623 94.6045 115.623 93.9184V85.5252H105.772V111H105.772Z" fill="#FF9100"/>
<path d="M105.784 11.199H105.76C100.326 11.199 95.9209 15.6042 95.9209 21.0384V32.1154H115.623V21.0382C115.623 15.6042 111.218 11.199 105.784 11.199Z" fill="#FC6B6B"/>
<path d="M105.784 11.199H105.772V32.1156H115.623V21.0382C115.623 15.6041 111.218 11.199 105.784 11.199Z" fill="#C62A52"/>
</g>
<defs>
<filter id="filter0_d" x="-3" y="0" width="144" height="144" filterUnits="userSpaceOnUse" color-interpolation-filters="sRGB">
<feFlood flood-opacity="0" result="BackgroundImageFix"/>
<feColorMatrix in="SourceAlpha" type="matrix" values="0 0 0 0 0 0 0 0 0 0 0 0 0 0 0 0 0 0 127 0" result="hardAlpha"/>
<feMorphology radius="2" operator="dilate" in="SourceAlpha" result="effect1_dropShadow"/>
<feOffset dy="11"/>
<feGaussianBlur stdDeviation="10"/>
<feColorMatrix type="matrix" values="0 0 0 0 0 0 0 0 0 0.210363 0 0 0 0 0.646115 0 0 0 0.1 0"/>
<feBlend mode="normal" in2="BackgroundImageFix" result="effect1_dropShadow"/>
<feBlend mode="normal" in="SourceGraphic" in2="effect1_dropShadow" result="shape"/>
</filter>
</defs>
</svg>
