<svg width="145" height="130" viewBox="0 0 145 130" fill="none" xmlns="http://www.w3.org/2000/svg">
<g clip-path="url(#clip0)" filter="url(#filter0_d)">
<path d="M83.584 11.3416L88.7109 43.0799L83.584 78.5272H53.8984C53.3574 78.5272 52.8496 78.3807 52.4141 78.1229C51.5488 77.6151 50.9688 76.6737 50.9688 75.5975V15.2479C50.9688 13.0904 52.7176 11.3416 54.875 11.3416H83.584Z" fill="#FFCC66"/>
<path d="M116.199 15.2479V75.5975C116.199 77.2147 114.889 78.5272 113.27 78.5272H83.584V11.3416H112.293C114.45 11.3416 116.199 13.0906 116.199 15.2479Z" fill="#FFA64D"/>
<path d="M83.584 11.3416L87.0182 19.7727L83.584 32.5096L78.3144 35.7401C76.6678 36.752 74.5818 36.808 72.8652 35.8494C71.1621 34.8963 70.1055 33.0936 70.1055 31.1424V11.3416H83.584Z" fill="#5C7099"/>
<path d="M97.0625 11.3416V31.1424C97.0625 33.0936 96.0059 34.8963 94.3027 35.8494C92.6016 36.8006 90.5117 36.7576 88.8496 35.7381L83.584 32.5096V11.3416H97.0625Z" fill="#404A80"/>
<path d="M83.584 50.6971L86.2369 53.6268L83.584 56.5564H74.8789C73.2617 56.5564 71.9492 55.2459 71.9492 53.6268C71.9492 52.0096 73.2617 50.6971 74.8789 50.6971H83.584Z" fill="#5C7099"/>
<path d="M95.2188 53.6268C95.2188 55.2459 93.9062 56.5564 92.2891 56.5564H83.584V50.6971H92.2891C93.9062 50.6971 95.2188 52.0096 95.2188 53.6268Z" fill="#404A80"/>
<path d="M83.584 72.8182L83.5789 77.4901L50.9687 75.0467L22.5 78.1229V86.8768C22.5 88.3944 23.7305 89.6268 25.25 89.6268H45.1582L52.0215 93.0194C58.998 96.0037 66.5606 97.1619 74.0098 96.4588C77.2422 96.1561 80.4512 95.5018 83.584 94.494L87.0182 84.2725L83.584 72.8182Z" fill="#FFA68C"/>
<path d="M122.5 74.8846C122.5 77.9549 120.592 80.701 117.717 81.7752L83.9883 94.3631C83.8535 94.408 83.7188 94.451 83.584 94.494V72.8182C116.35 67.2166 114.264 67.5271 115.162 67.5271C115.514 67.5271 115.859 67.5525 116.199 67.6033C119.703 68.1053 122.5 71.1209 122.5 74.8846Z" fill="#F59280"/>
<path d="M80.2285 71.8859C80.2148 71.8781 80.2012 71.8723 80.1855 71.8625C77.793 70.6613 75.7539 69.6379 74.0098 68.7629C62.0449 62.759 64.0176 63.7492 61.8535 62.6652C55.5918 59.5207 48.3418 58.9953 41.6914 61.2023H25.25C23.7305 61.2023 22.5 62.4328 22.5 63.9523V78.1223H65.0195L74.0098 82.548L74.7051 82.8898C76.1973 83.6223 77.8711 83.7043 79.3633 83.2082C84.5527 81.4875 85.084 74.3664 80.2285 71.8859Z" fill="#FFBDA9"/>
</g>
<defs>
<filter id="filter0_d" x="0.5" y="-7" width="144" height="144" filterUnits="userSpaceOnUse" color-interpolation-filters="sRGB">
<feFlood flood-opacity="0" result="BackgroundImageFix"/>
<feColorMatrix in="SourceAlpha" type="matrix" values="0 0 0 0 0 0 0 0 0 0 0 0 0 0 0 0 0 0 127 0" result="hardAlpha"/>
<feMorphology radius="2" operator="dilate" in="SourceAlpha" result="effect1_dropShadow"/>
<feOffset dy="11"/>
<feGaussianBlur stdDeviation="10"/>
<feColorMatrix type="matrix" values="0 0 0 0 0 0 0 0 0 0.210363 0 0 0 0 0.646115 0 0 0 0.1 0"/>
<feBlend mode="normal" in2="BackgroundImageFix" result="effect1_dropShadow"/>
<feBlend mode="normal" in="SourceGraphic" in2="effect1_dropShadow" result="shape"/>
</filter>
<clipPath id="clip0">
<rect width="100" height="100" fill="white" transform="translate(22.5 4)"/>
</clipPath>
</defs>
</svg>
