<svg width="145" height="144" viewBox="0 0 145 144" fill="none" xmlns="http://www.w3.org/2000/svg">
<g clip-path="url(#clip0)" filter="url(#filter0_d)">
<path d="M72.5 11L78.431 29.1609L72.5 51.6335C70.9306 51.6335 69.4438 50.8817 68.5235 49.6202L57.001 33.8729C55.9075 32.381 55.7541 30.4321 56.5978 28.7879C57.3884 27.2452 58.9145 26.2512 60.6353 26.1341V15.882C60.6353 13.1891 62.8399 11 65.5519 11L72.5 11Z" fill="#AFEA94"/>
<path d="M87.999 33.8729L76.4765 49.6202C75.5561 50.8817 74.0694 51.6335 72.5 51.6335V11H79.4481C82.1601 11 84.3647 13.1891 84.3647 15.882V26.1341C86.0855 26.2512 87.6116 27.2452 88.4022 28.7879C89.2459 30.4321 89.0925 32.381 87.999 33.8729Z" fill="#00CCB2"/>
<path d="M72.5 57.6656H42.3604L27.339 41.2135C26.245 40.0152 24.3793 39.924 23.1721 41.0108C21.965 42.0973 21.8738 43.9497 22.968 45.1483L37.9164 61.52C37.9095 61.6179 37.9014 61.7155 37.9014 61.8153V106.852C37.9014 109.143 39.7717 111 42.0785 111H72.5004L83.8754 85.4098L72.5 57.6656Z" fill="#FFCC66"/>
<path d="M121.828 41.0107C120.621 39.924 118.756 40.015 117.661 41.2134L102.64 57.6656H72.5V111H102.922C105.229 111 107.099 109.143 107.099 106.852V61.8152C107.099 61.7157 107.091 61.618 107.084 61.52L122.032 45.1483C123.126 43.9498 123.035 42.0974 121.828 41.0107Z" fill="#FFA64D"/>
<path d="M52.6999 69.2134C51.0696 69.2134 49.75 70.5256 49.75 72.1425V96.3453C49.75 97.9622 51.0696 99.2745 52.6999 99.2745H72.5L75.9744 84.2439L72.5 69.2134H52.6999Z" fill="#F7F9FA"/>
<path d="M95.25 72.1425V96.3453C95.25 97.9622 93.9304 99.2745 92.3 99.2745H72.5V69.2134H92.3C93.9304 69.2134 95.25 70.5256 95.25 72.1425Z" fill="#D7E8FF"/>
<path d="M72.5 81.3148L74.2208 84.244L72.5 87.1732H67.4359C65.8075 87.1732 64.4859 85.8629 64.4859 84.244C64.4859 82.6271 65.8075 81.3148 67.4359 81.3148H72.5Z" fill="#5C7099"/>
<path d="M80.514 84.244C80.514 85.8629 79.1924 87.1732 77.5641 87.1732H72.5V81.3148H77.5641C79.1924 81.3148 80.514 82.6271 80.514 84.244Z" fill="#404A80"/>
</g>
<defs>
<filter id="filter0_d" x="0.145386" y="0" width="144.709" height="144" filterUnits="userSpaceOnUse" color-interpolation-filters="sRGB">
<feFlood flood-opacity="0" result="BackgroundImageFix"/>
<feColorMatrix in="SourceAlpha" type="matrix" values="0 0 0 0 0 0 0 0 0 0 0 0 0 0 0 0 0 0 127 0" result="hardAlpha"/>
<feMorphology radius="2" operator="dilate" in="SourceAlpha" result="effect1_dropShadow"/>
<feOffset dy="11"/>
<feGaussianBlur stdDeviation="10"/>
<feColorMatrix type="matrix" values="0 0 0 0 0 0 0 0 0 0.210363 0 0 0 0 0.646115 0 0 0 0.1 0"/>
<feBlend mode="normal" in2="BackgroundImageFix" result="effect1_dropShadow"/>
<feBlend mode="normal" in="SourceGraphic" in2="effect1_dropShadow" result="shape"/>
</filter>
<clipPath id="clip0">
<rect width="100.709" height="100" fill="white" transform="translate(22.1454 11)"/>
</clipPath>
</defs>
</svg>
