<svg width="143" height="144" viewBox="0 0 143 144" fill="none" xmlns="http://www.w3.org/2000/svg">
<g filter="url(#filter0_d)">
<path d="M71.5002 78.0316C80.9761 78.0316 88.6578 70.4063 88.6578 61.0001C88.6578 51.5939 80.9761 43.9687 71.5002 43.9687C62.0243 43.9687 54.3426 51.5939 54.3426 61.0001C54.3426 70.4063 62.0243 78.0316 71.5002 78.0316Z" fill="#FFD064"/>
<path d="M71.5002 79.5406C61.2012 79.5406 52.8223 71.2232 52.8223 61C52.8223 50.7767 61.2012 42.4595 71.5002 42.4595C81.7992 42.4595 90.1782 50.7767 90.1782 61C90.1782 71.2232 81.7992 79.5406 71.5002 79.5406ZM71.5002 45.4777C62.8776 45.4777 55.8628 52.441 55.8628 61C55.8628 69.5589 62.8776 76.5224 71.5002 76.5224C80.1228 76.5224 87.1377 69.5591 87.1377 61C87.1377 52.4408 80.1228 45.4777 71.5002 45.4777Z" fill="#FFC250"/>
<path d="M71.0239 71.8699C68.4992 71.8699 67.0432 71.6857 64.541 70.3478C63.8018 69.9525 63.5256 69.0373 63.9238 68.3037C64.3218 67.5699 65.2435 67.2953 65.9833 67.691C68.0138 68.7769 68.9565 68.8654 71.3458 68.851C74.2208 68.8353 75.9602 67.1574 76.1925 65.5082C76.397 64.0561 75.401 62.9014 73.4599 62.3404C69.9604 61.3291 67.9521 60.5439 66.5275 59.6305C64.9519 58.6203 64.1711 56.8137 64.4899 54.9158C64.8661 52.6748 66.671 50.8424 69.0874 50.2473C73.7624 49.0959 76.8751 51.3892 77.0053 51.4873C77.6739 51.9914 77.8042 52.9381 77.2965 53.6018C76.7915 54.2619 75.8449 54.3937 75.1767 53.8984C75.0667 53.8195 73.0115 52.39 69.8193 53.1766C68.3157 53.5469 67.6296 54.574 67.4889 55.4121C67.4322 55.7492 67.386 56.5881 68.1771 57.0953C69.6158 58.0178 72.0846 58.7996 74.3099 59.4426C77.6995 60.4221 79.6205 62.967 79.2037 65.9262C78.7903 68.8605 75.9643 71.8441 71.3625 71.8691C71.2474 71.8695 71.1346 71.8699 71.0239 71.8699Z" fill="#E49542"/>
<path d="M71.3544 74.623C70.5146 74.623 69.8342 73.9474 69.8342 73.114V70.3599C69.8342 69.5265 70.5148 68.851 71.3544 68.851C72.1941 68.851 72.8745 69.5265 72.8745 70.3599V73.114C72.8745 73.9472 72.1939 74.623 71.3544 74.623Z" fill="#E49542"/>
<path d="M71.3544 52.9517C70.5146 52.9517 69.8342 52.2761 69.8342 51.4427V48.8863C69.8342 48.0529 70.5148 47.3773 71.3544 47.3773C72.1941 47.3773 72.8745 48.0529 72.8745 48.8863V51.4427C72.8745 52.2761 72.1939 52.9517 71.3544 52.9517Z" fill="#E49542"/>
<path d="M93.0892 88.099L72.1785 88.132C69.7022 88.0879 67.5827 89.8855 67.24 92.3203C66.91 94.6644 68.3289 96.9037 70.6002 97.624L92.3146 94.9871L93.0892 88.099Z" fill="#EAAC9D"/>
<path d="M86.837 92.2216L65.9262 92.2546C63.45 92.2105 61.3305 94.0081 60.9878 96.4429C60.6578 98.787 62.0766 101.026 64.348 101.747L86.0624 99.1097L86.837 92.2216Z" fill="#FFCBBE"/>
<path d="M57.9242 103.88C58.5166 104.89 59.4733 105.687 60.6657 106.064L65.4184 107.571L75.1723 110.664C76.7958 111.179 78.5493 111.1 80.1171 110.441L108.879 98.3533L112.665 81.3654C116.539 81.3291 112.665 81.3763 112.665 81.3654L108.742 72.217L99.6303 71.055C95.3824 70.5138 91.0829 70.7382 86.9366 71.7066C86.7607 71.7474 86.5853 71.7892 86.4114 71.8336C85.164 72.1453 83.9293 72.5244 82.7165 72.9707L81.5151 73.4119C79.0331 74.3259 77.732 77.0334 78.5794 79.5222C78.686 79.8355 78.8226 80.133 78.9861 80.4117C79.7702 81.7486 81.1644 82.6533 82.7537 82.8033L92.6009 83.7295L75.3274 96.805L62.2442 96.5726C59.7686 96.5287 57.6491 98.3265 57.3068 100.761C57.1498 101.875 57.3878 102.965 57.9242 103.88Z" fill="#FFDDCE"/>
<path d="M65.4184 107.571L75.1723 110.664C76.7958 111.179 78.5493 111.1 80.1171 110.441L108.879 98.3533L108.797 82.5943C108.674 100.86 70.7515 109.263 65.4184 107.571Z" fill="#FFCBBE"/>
<path d="M108.79 81.4019C108.788 81.6621 108.79 81.9252 108.795 82.1941L108.79 81.4019Z" fill="#FFCBBE"/>
<path d="M108.879 98.3531L120.744 98.8432L120.68 86.4141L120.608 72.7072L108.743 72.217L108.82 87.1805L108.879 98.3531Z" fill="#DB5C6E"/>
<path d="M108.879 98.3531L120.744 98.8433L120.68 86.4142C114.773 90.4728 108.82 87.1807 108.82 87.1807L108.879 98.3531Z" fill="#D64553"/>
<path d="M49.9108 33.901L70.8216 33.868C73.2978 33.9121 75.4173 32.1145 75.7601 29.6797C76.09 27.3355 74.6712 25.0963 72.3998 24.376L50.6855 27.0129L49.9108 33.901Z" fill="#EAAC9D"/>
<path d="M56.163 29.7781L77.0738 29.7451C79.55 29.7892 81.6695 27.9916 82.0123 25.5568C82.3422 23.2127 80.9234 20.9734 78.652 20.2531L56.9377 22.89L56.163 29.7781Z" fill="#FFCBBE"/>
<path d="M85.0758 18.1203C84.4834 17.1099 83.5268 16.3133 82.3344 15.9355L77.5817 14.4289L67.8277 11.3355C66.2043 10.8211 64.4508 10.9004 62.883 11.5594L34.1209 23.6467L34.2034 39.4056C34.2016 39.5207 34.2028 39.6355 34.2047 39.7515C34.2047 39.7703 34.2059 39.7885 34.2051 39.806L34.2102 40.5982C34.2098 40.6109 34.2095 40.6236 34.2095 40.6345L34.2577 49.783L43.3698 50.9449C47.6176 51.4861 51.9172 51.2617 56.0635 50.2933C56.2394 50.2525 56.4147 50.2107 56.5886 50.1664C57.8361 49.8547 59.0708 49.4756 60.2836 49.0293L61.485 48.5881C63.9669 47.674 65.2681 44.9666 64.4207 42.4777C64.314 42.1644 64.1775 41.867 64.014 41.5883C63.2299 40.2513 61.8356 39.3467 60.2464 39.1967L50.3992 38.2705L67.6727 25.1949L80.7558 25.4273C83.2314 25.4713 85.3509 23.6734 85.6933 21.2388C85.8503 20.125 85.6122 19.0349 85.0758 18.1203Z" fill="#FFDDCE"/>
<path d="M77.5817 14.4289L67.8277 11.3355C66.2043 10.8211 64.4507 10.9004 62.883 11.5594L34.1209 23.6467L34.2033 39.4056C34.3265 21.1396 72.2485 12.7373 77.5817 14.4289Z" fill="#FFCBBE"/>
<path d="M34.2102 40.598C34.2118 40.3379 34.2102 40.0748 34.2051 39.8058L34.2102 40.598Z" fill="#FFCBBE"/>
<path d="M34.1211 23.6468L22.2559 23.1568L22.3198 35.5859L22.392 49.2927L34.2572 49.783L34.1797 34.8195L34.1211 23.6468Z" fill="#80B4FB"/>
<path d="M34.1211 23.6469L22.2559 23.1566L22.3198 35.5857C28.2267 31.5271 34.1797 34.8193 34.1797 34.8193L34.1211 23.6469Z" fill="#61A2F9"/>
</g>
<defs>
<filter id="filter0_d" x="-0.870361" y="0" width="144.741" height="144" filterUnits="userSpaceOnUse" color-interpolation-filters="sRGB">
<feFlood flood-opacity="0" result="BackgroundImageFix"/>
<feColorMatrix in="SourceAlpha" type="matrix" values="0 0 0 0 0 0 0 0 0 0 0 0 0 0 0 0 0 0 127 0" result="hardAlpha"/>
<feMorphology radius="2" operator="dilate" in="SourceAlpha" result="effect1_dropShadow"/>
<feOffset dy="11"/>
<feGaussianBlur stdDeviation="10"/>
<feColorMatrix type="matrix" values="0 0 0 0 0 0 0 0 0 0.210363 0 0 0 0 0.646115 0 0 0 0.1 0"/>
<feBlend mode="normal" in2="BackgroundImageFix" result="effect1_dropShadow"/>
<feBlend mode="normal" in="SourceGraphic" in2="effect1_dropShadow" result="shape"/>
</filter>
</defs>
</svg>
